<svg width="150" height="150" viewBox="0 0 150 150" fill="none" xmlns="http://www.w3.org/2000/svg">
<circle cx="75" cy="75" r="75" fill="#EFF4FF"/>
<path d="M72.1667 40H77.1667V50H72.1667V40Z" fill="#0063FF" fill-opacity="0.8"/>
<path d="M84.356 51.7717L91.426 44.7017L94.961 48.2367L87.891 55.3067L84.356 51.7717Z" fill="#0063FF" fill-opacity="0.8"/>
<path d="M54.3594 48.2334L57.8944 44.6984L64.9644 51.7684L61.4294 55.3034L54.3594 48.2334Z" fill="#0063FF" fill-opacity="0.8"/>
<path d="M95.8792 69.9998C90.6875 63.7158 82.8513 59.9998 74.6667 59.9998C66.482 59.9998 58.6458 63.7158 53.4542 69.9998H32V99.9998H53.4542C58.6458 106.284 66.482 110 74.6667 110C82.8513 110 90.6875 106.284 95.8792 99.9998H117.333V69.9998H95.8792ZM74.6667 105C62.0025 105 56.2012 95.2428 55.9167 94.9998H37V74.9998H55.9167C56.2215 74.7341 61.6707 65.5174 73.7573 65.0208L60.8495 77.9288L62.6172 79.6966C65.0543 82.1338 68.2545 83.3521 71.456 83.3519C74.608 83.3516 77.7593 82.1673 80.1817 79.8041L91.5782 97.3358C87.335 102.162 81.1345 105 74.6667 105ZM112.333 94.9998H96.0233L89.3152 84.6803C89.9352 84.7738 90.5662 84.8221 91.2048 84.8221C94.5437 84.8221 97.6827 83.5218 100.044 81.1609L96.508 77.6254C95.0915 79.0419 93.208 79.8221 91.2048 79.8221C89.2013 79.8221 87.3182 79.0419 85.9015 77.6254L80.5983 72.3221L76.7595 76.1609C74.455 78.4656 71.0115 78.9541 68.2235 77.6258L80.1588 65.6903C89.1238 67.9653 93.0058 74.6014 93.4168 74.9996H112.333V94.9998Z" fill="#0063FF" fill-opacity="0.8"/>
</svg>
