<svg width="150" height="150" viewBox="0 0 150 150" fill="none" xmlns="http://www.w3.org/2000/svg">
<circle cx="75" cy="75" r="75" fill="#EFF4FF"/>
<path d="M108.25 110H41.75C36.85 110 33 106.15 33 101.25V59.25C33 54.35 36.85 50.5 41.75 50.5H108.25C113.15 50.5 117 54.35 117 59.25V101.25C117 106.15 113.15 110 108.25 110ZM41.75 54C38.95 54 36.5 56.45 36.5 59.25V101.25C36.5 104.05 38.95 106.5 41.75 106.5H108.25C111.05 106.5 113.5 104.05 113.5 101.25V59.25C113.5 56.45 111.05 54 108.25 54H41.75Z" fill="#0063FF" fill-opacity="0.8"/>
<path d="M87.25 54C86.2 54 85.5 53.3 85.5 52.25V45.25C85.5 44.2 84.8 43.5 83.75 43.5H66.25C65.2 43.5 64.5 44.2 64.5 45.25V52.25C64.5 53.3 63.8 54 62.75 54C61.7 54 61 53.3 61 52.25V45.25C61 42.45 63.45 40 66.25 40H83.75C86.55 40 89 42.45 89 45.25V52.25C89 53.3 88.3 54 87.25 54Z" fill="#0063FF" fill-opacity="0.8"/>
<path d="M115.25 75H34.75C33.7 75 33 74.3 33 73.25C33 72.2 33.7 71.5 34.75 71.5H115.25C116.3 71.5 117 72.2 117 73.25C117 74.3 116.3 75 115.25 75Z" fill="#0063FF" fill-opacity="0.8"/>
<path d="M55.75 82.7C54.7 82.7 54 82 54 80.95V66.25C54 65.2 54.7 64.5 55.75 64.5C56.8 64.5 57.5 65.2 57.5 66.25V80.95C57.5 81.65 56.8 82.7 55.75 82.7Z" fill="#0063FF" fill-opacity="0.8"/>
<path d="M94.25 82.7C93.2 82.7 92.5 82 92.5 80.95V66.25C92.5 65.2 93.2 64.5 94.25 64.5C95.3 64.5 96 65.2 96 66.25V80.95C96 81.65 95.3 82.7 94.25 82.7Z" fill="#0063FF" fill-opacity="0.8"/>
</svg>
