<svg width="40" height="40" viewBox="0 0 40 40" fill="none" xmlns="http://www.w3.org/2000/svg">
<path d="M38.8562 5.46818C38.2678 4.87872 37.313 4.87771 36.7246 5.46567L18.6392 23.5033L12.114 16.4164C11.5502 15.8043 10.5969 15.7647 9.98386 16.3284C9.37128 16.8922 9.33206 17.846 9.89589 18.4586L17.4839 26.6993C17.7618 27.0013 18.1507 27.1767 18.5607 27.1852C18.5718 27.1857 18.5824 27.1857 18.5929 27.1857C18.9914 27.1857 19.3748 27.0274 19.6572 26.746L38.8532 7.60028C39.4432 7.01239 39.4442 6.05763 38.8562 5.46818Z" fill="white"/>
<path d="M38.4924 18.4924C37.6598 18.4924 36.9849 19.1673 36.9849 20C36.9849 29.3659 29.3659 36.9849 20 36.9849C10.6347 36.9849 3.01508 29.3659 3.01508 20C3.01508 10.6347 10.6347 3.01508 20 3.01508C20.8327 3.01508 21.5076 2.34023 21.5076 1.50758C21.5076 0.674844 20.8327 0 20 0C8.97187 0 0 8.97187 0 20C0 31.0277 8.97187 40 20 40C31.0277 40 40 31.0277 40 20C40 19.1673 39.3252 18.4924 38.4924 18.4924Z" fill="white"/>
</svg>
