<svg width="159" height="180" viewBox="0 0 159 180" fill="none" xmlns="http://www.w3.org/2000/svg">
<g opacity="0.5">
<path d="M17.628 119.165C14.1339 120.582 11.1249 123.128 9.40736 126.628C9.27304 126.901 9.15757 127.134 9.0508 127.37C8.1714 129.318 7.88286 131.533 2.5136 158.486L17.628 119.165ZM17.628 119.165C17.71 119.452 17.9027 119.741 18.2933 119.965C18.3157 119.96 18.3434 119.953 18.3489 119.952L18.3566 119.95L18.3615 119.948L18.3649 119.947L18.3695 119.946L18.3706 119.946L18.3713 119.945L18.3722 119.945L17.628 119.165ZM18.4283 119.897L18.1204 118.977C18.1043 118.982 18.0932 118.985 18.0876 118.986L18.4283 119.897ZM18.4283 119.897C18.5002 119.765 18.6669 119.317 18.5498 118.85C19.0063 118.715 19.6946 118.512 20.1276 118.385L34.6927 113.223C34.7187 113.296 34.7472 113.349 34.7602 113.372C34.7655 113.382 34.7707 113.391 34.7753 113.399C34.7786 113.404 34.7816 113.409 34.7844 113.414L34.7942 113.429L34.7987 113.436L34.8008 113.439L34.8018 113.441L34.8023 113.442L34.8026 113.442L34.8027 113.442C34.8028 113.442 34.8028 113.442 35.6307 112.891L35.6341 112.89L18.4283 119.897ZM119.205 130.736L119.207 130.742L119.208 130.75L119.214 130.778L119.234 130.878L119.306 131.236C119.367 131.542 119.455 131.98 119.565 132.531C119.784 133.632 120.094 135.185 120.463 137.039C121.202 140.746 122.181 145.659 123.16 150.579C124.552 157.567 125.946 164.57 126.66 168.157C126.932 169.526 127.106 170.397 127.142 170.581C127.478 172.989 127.151 174.646 126.563 175.794C125.974 176.943 125.076 177.679 124.101 178.158C123.115 178.642 122.065 178.853 121.237 178.941C120.827 178.985 120.48 178.997 120.235 178.999C120.112 179.001 120.015 178.999 119.945 178.998L119.902 178.997C119.884 178.997 119.866 178.996 119.853 178.996C119.842 178.996 119.821 178.996 119.799 178.996C119.794 178.996 119.785 178.996 119.774 178.997H119.75H119.722H119.694H119.664H119.634H119.604H119.572H119.54H119.508H119.474H119.44H119.406H119.37H119.334H119.298H119.26H119.222H119.184H119.144H119.104H119.064H119.022H118.98H118.938H118.895H118.851H118.806H118.761H118.715H118.669H118.622H118.575H118.526H118.477H118.428H118.378H118.327H118.276H118.224H118.172H118.119H118.065H118.011H117.956H117.9H117.844H117.788H117.73H117.673H117.614H117.555H117.496H117.436H117.375H117.314H117.252H117.19H117.127H117.064H117H116.935H116.87H116.804H116.738H116.671H116.604H116.536H116.468H116.399H116.33H116.26H116.19H116.119H116.047H115.975H115.903H115.83H115.756H115.682H115.608H115.533H115.457H115.381H115.305H115.228H115.15H115.072H114.994H114.915H114.836H114.756H114.676H114.595H114.514H114.432H114.35H114.267H114.184H114.1H114.016H113.932H113.847H113.762H113.676H113.59H113.503H113.416H113.328H113.24H113.152H113.063H112.974H112.884H112.794H112.704H112.613H112.522H112.43H112.338H112.245H112.152H112.059H111.965H111.871H111.777H111.682H111.587H111.491H111.395H111.298H111.202H111.105H111.007H110.909H110.811H110.712H110.613H110.514H110.414H110.314H110.214H110.113H110.012H109.911H109.809H109.707H109.604H109.502H109.399H109.295H109.191H109.087H108.983H108.878H108.773H108.668H108.562H108.456H108.35H108.244H108.137H108.03H107.922H107.815H107.707H107.598H107.49H107.381H107.272H107.162H107.053H106.943H106.832H106.722H106.611H106.5H106.389H106.277H106.165H106.053H105.941H105.828H105.716H105.603H105.489H105.376H105.262H105.148H105.034H104.919H104.805H104.69H104.575H104.459H104.344H104.228H104.112H103.996H103.88H103.763H103.646H103.529H103.412H103.295H103.177H103.06H102.942H102.824H102.705H102.587H102.468H102.349H102.23H102.111H101.992H101.872H101.753H101.633H101.513H101.393H101.273H101.152H101.032H100.911H100.79H100.669H100.548H100.427H100.306H100.184H100.063H99.941H99.8192H99.6972H99.5751H99.4529H99.3306H99.2082H99.0857H98.9631H98.8404H98.7176H98.5947H98.4717H98.3486H98.2255H98.1022H97.9789H97.8555H97.732H97.6084H97.4847H97.361H97.2373H97.1134H96.9895H96.8655H96.7415H96.6174H96.4933H96.3691H96.2449H96.1206H95.9963H95.872H95.7476H95.6232H95.4987H95.3742H95.2497H95.1252H95.0006H94.876H94.7514H94.6268H94.5022H94.3775H94.2529H94.1282H94.0036H93.8789H93.7543H93.6296H93.505H93.3804H93.2558H93.1312H93.0066H92.882H92.7575H92.633H92.5085H92.384H92.2596H92.1352H92.0109H91.8866H91.7623H91.6381H91.5139H91.3898H91.2657H91.1417H91.0177H90.8938H90.77H90.6462H90.5225H90.3989H90.2753H90.1518H90.0284H89.9051H89.7818H89.6587H89.5356H89.4126H89.2897H89.1669H89.0442H88.9216H88.7991H88.6768H88.5545H88.4323H88.3102H88.1883H88.0665H87.9447H87.8232H87.7017H87.5804H87.4592H87.3381H87.2171H87.0963H86.9757H86.8552H86.7348H86.6146H86.4945H86.3746H86.2548H86.1352H86.0157H85.8964H85.7773H85.6584H85.5396H85.421H85.3025H85.1843H85.0662H84.9483H84.8306H84.713H84.5957H84.4786H84.3616H84.2449H84.1283H84.0119H83.8958H83.7799H83.6641H83.5486H83.4333H83.3182H83.2034H83.0887H82.9743H82.8601H82.7462H82.6324H82.5189H82.4057H82.2927H82.1799H82.0674H81.9551H81.843H81.7313H81.6197H81.5085H81.3975H81.2867H81.1762H81.066H80.9561H80.8464H80.737H80.6279H80.5191H80.4105H80.3022H80.1942H80.0865H79.9791H79.872H79.7652H79.6587H79.5525H79.4466H79.341H79.2357H79.1307H79.0261H78.9217H78.8177H78.714H78.6106H78.5075H78.4048H78.3024H78.2004H78.0987H77.9973H77.8962H77.7956H77.6952H77.5952H77.4956H77.3963H77.2974H77.1988H77.1006H77.0027H76.9053H76.8082H76.7114H76.6151H76.5191H76.4235H76.3282H76.2334H76.139H76.0449H75.9512H75.8579H75.7651H75.6726H75.5805H75.4888H75.3976H75.3067H75.2163H75.1263H75.0366H74.9474H74.8587H74.7703H74.6824H74.5949H74.5079H74.4212H74.3351H74.2493H74.164H74.0792H73.9947H73.9108H73.8273H73.7442H73.6616H73.5795H73.4978H73.4166H73.3358H73.2556H73.1758H73.0964H73.0176H72.9392H72.8613H72.7839H72.707H72.6305H72.5546H72.4792H72.4042H72.3298H72.2558H72.1824H72.1094H72.037H71.9651H71.8937H71.8228H71.7525H71.6826H71.6133H71.5445H71.4762H71.4085H71.3413H71.2747H71.2085H71.143H71.0779H71.0135H70.9495H70.8861H70.8233H70.761H70.6993H70.6382H70.5776H70.5175H70.4581H70.3992H70.3587H70.3586H70.3583H70.3579H70.3578H70.3573H70.3572H70.3566H70.3565H70.3557H70.3556H70.3547H70.3546H70.3535H70.3534H70.3521H70.3506H70.3491H70.349H70.3473H70.3472H70.3455H70.3453H70.3435H70.3432H70.3413H70.3409H70.339H70.3366H70.3341H70.3314H70.3285H70.3256H70.3225H70.3192H70.3159H70.3124H70.3088H70.305H70.3011H70.2971H70.2929H70.2887H70.2842H70.2797H70.275H70.2703H70.2654H70.2603H70.2551H70.2499H70.2444H70.2389H70.2332H70.2275H70.2216H70.2155H70.2094H70.2031H70.1968H70.1903H70.1836H70.1769H70.1701H70.1631H70.156H70.1488H70.1415H70.1341H70.1265H70.1189H70.1111H70.1032H70.0953H70.0872H70.079H70.0706H70.0622H70.0537H70.0451H70.0363H70.0275H70.0185H70.0094H70.0003H69.991H69.9816H69.9722H69.9626H69.9529H69.9431H69.9332H69.9233H69.9132H69.903H69.8927H69.8823H69.8719H69.8613H69.8506H69.8399H69.829H69.8181H69.8071H69.7959H69.7847H69.7734H69.762H69.7505H69.7389H69.7272H69.7155H69.7036H69.6917H69.6796H69.6675H69.6553H69.6431H69.6307H69.6182H69.6057H69.5931H69.5804H69.5676H69.5547H69.5418H69.5288H69.5157H69.5025H69.4892H69.4759H69.4625H69.449H69.4354H69.4218H69.4081H69.3943H69.3804H69.3665H69.3525H69.3384H69.3242H69.31H69.2957H69.2814H69.2669H69.2524H69.2379H69.2232H69.2085H69.1938H69.1789H69.1641H69.1491H69.1341H69.119H69.1038H69.0886H69.0734H69.058H69.0426H69.0272H69.0117H68.9961H68.9805H68.9648H68.9491H68.9333H68.9174H68.9015H68.8856H68.8695H68.8535H68.8374H68.8212H68.805H68.7887H68.7724H68.756H68.7396H68.7231H68.7066H68.69H68.6734H68.6568H68.6401H68.6233H68.6065H68.5897H68.5728H68.5559H68.5389H68.5219H68.5049H68.4878H68.4707H68.4535H68.4363H68.4191H68.4018H68.3845H68.3672H68.3498H68.3324H68.3149H68.2974H68.2799H68.2624H68.2448H68.2271H68.2095H68.1918H68.1741H68.1564H68.1386H68.1208H68.103H68.0852H68.0673H68.0494H68.0315H68.0135H67.9956H67.9776H67.9595H67.9415H67.9235H67.9054H67.8873H67.8691H67.851H67.8329H67.8147H67.7965H67.7783H67.76H67.7418H67.7235H67.7053H67.687H67.6687H67.6504H67.6321H67.6137H67.5954H67.577H67.5587H67.5403H67.5219H67.5035H67.4851H67.4667H67.4483H67.4299H67.4114H67.393H67.3746H67.3561H67.3377H67.3193H67.3008H67.2824H67.2639H67.2455H67.2271H67.2086H67.1902H67.1717H67.1533H67.1349H67.1165H67.098H67.0796H67.0612H67.0428H67.0244H67.006H66.9876H66.9693H66.9509H66.9326H66.9142H66.8959H66.8776H66.8593H66.841H66.8227H66.8044H66.7862H66.768H66.7497H66.7315H66.7134H66.6952H66.677H66.6589H66.6408H66.6227H66.6046H66.5866H66.5686H66.5506H66.5326H66.5146H66.4967H66.4788H66.4609H66.443H66.4252H66.4074H66.3896H66.3719H66.3542H66.3365H66.3188H66.3012H66.2836H66.266H66.2485H66.231H66.2135H66.1961H66.1787H66.1613H66.144H66.1267H66.1094H66.0922H66.075H66.0579H66.0408H66.0237H66.0067H65.9897H65.9728H65.9559H65.939H65.9222H65.9055H65.8887H65.8721H65.8554H65.8388H65.8223H65.8058H65.7894H65.773H65.7566H65.7403H65.7241H65.7079H65.6918H65.6757H65.6596H65.6436H65.6277H65.6118H65.596H65.5803H65.5646H65.5489H65.5333H65.5178H65.5023H65.4869H65.4715H65.4562H65.441H65.4258H65.4107H65.3956H65.3806H65.3657H65.3509H65.3361H65.3213H65.3067H65.2921H65.2775H65.2631H65.2487H65.2344H65.2201H65.2059H65.1918H65.1778H65.1638H65.1499H65.1361H65.1223H65.1087H65.0951H65.0815H65.0681H65.0547H65.0414H65.0282H65.0151H65.002H64.989H64.9761H64.9633H64.9506H64.9379H64.9253H64.9128H64.9004H64.8881H64.8759H64.8637H64.8517H64.8397H64.8278H64.816H64.8043H64.7926H64.7811H64.7696H64.7583H64.747H64.7358H64.7248H64.7138H64.7029H64.6921H64.6814H64.6708H64.6602H64.6498H64.6395H64.6293H64.6192H64.6091H64.5992H64.5894H64.5797H64.57H64.5605H64.5511H64.5418H64.5326H64.5234H64.5144H64.5055H64.4967H64.4881H64.4795H64.471H64.4626H64.4544H64.4462H64.4382H64.4303H64.4225H64.4147H64.4072H64.3997H64.3923H64.3851H64.3779H64.3709H64.364H64.3572H64.3505H64.344H64.3375H64.3312H64.325H64.319H64.313H64.3072H64.3014H64.2959H64.2904H64.285H64.2798H64.2747H64.2697H64.2649H64.2602H64.2556H64.2511H64.2468H64.2426H64.2385H64.2345H64.2307H64.227H64.2235H64.22H64.2167H64.2136H64.2128H64.2124H64.2122H64.211H64.2107H64.2106H64.2086H64.2081H64.2077H64.2052H64.2049H64.2046H64.2023H64.2008H64.2001H64.1998H64.1975H64.1954H64.1953H64.1947H64.1932H64.1912H64.1895H64.189H64.1883H64.1878H64.1863H64.1849H64.1837H64.1826H64.1816H64.1809H64.1725H64.1632H64.153H64.1418H64.1296H64.1166H64.1025H64.0876H64.0717H64.0548H64.0371H64.0184H63.9988H63.9783H63.9568H63.9345H63.9112H63.8871H63.862H63.8361H63.8092H63.7815H63.7529H63.7234H63.693H63.6617H63.6295H63.5965H63.5626H63.5279H63.4923H63.4558H63.4185H63.3803H63.3413H63.3014H63.2607H63.2191H63.1767H63.1335H63.0895H63.0446H62.9989H62.9524H62.905H62.8569H62.8079H62.7581H62.7076H62.6562H62.604H62.5511H62.4973H62.4428H62.3875H62.3314H62.2745H62.2168H62.1584H62.0992H62.0393H61.9785H61.9171H61.8548H61.7919H61.7281H61.6637H61.5985H61.5325H61.4658H61.3984H61.3303H61.2614H61.1918H61.1215H61.0505H60.9787H60.9063H60.8331H60.7593H60.6847H60.6095H60.5335H60.4569H60.3796H60.3016H60.2229H60.1435H60.0635H59.9828H59.9014H59.8194H59.7367H59.6534H59.5694H59.4847H59.3994H59.3135H59.2269H59.1397H59.0518H58.9633H58.8742H58.7845H58.6941H58.6032H58.5116H58.4194H58.3266H58.2332H58.1391H58.0445H57.9493H57.8535H57.7571H57.6602H57.5626H57.4645H57.3658H57.2665H57.1667H57.0662H56.9653H56.8637H56.7616H56.659H56.5558H56.4521H56.3478H56.243H56.1376H56.0317H55.9253H55.8183H55.7109H55.6029H55.4944H55.3854H55.2758H55.1658H55.0552H54.9442H54.8327H54.7206H54.6081H54.4951H54.3816H54.2676H54.1532H54.0382H53.9229H53.807H53.6907H53.5739H53.4566H53.3389H53.2207H53.1021H52.9831H52.8636H52.7437H52.6233H52.5025H52.3813H52.2596H52.1375H52.015H51.8921H51.7688H51.6451H51.5209H51.3964H51.2714H51.1461H51.0204H50.8943H50.7677H50.6409H50.5136H50.3859H50.2579H50.1295H50.0008H49.8716H49.7422H49.6123H49.4821H49.3516H49.2207H49.0895H48.9579H48.826H48.6937H48.5611H48.4282H48.295H48.1614H48.0276H47.8934H47.7589H47.6241H47.489H47.3536H47.2178H47.0818H46.9455H46.8089H46.6721H46.5349H46.3975H46.2598H46.1218H45.9835H45.845H45.7062H45.5672H45.4279H45.2883H45.1485H45.0085H44.8682H44.7277H44.5869H44.4459H44.3047H44.1632H44.0215H43.8796H43.7375H43.5951H43.4526H43.3099H43.1669H43.0237H42.8804H42.7368H42.5931H42.4492H42.305H42.1608H42.0163H41.8716H41.7268H41.5818H41.4367H41.2914H41.1459H41.0003H40.8545H40.7085H40.5625H40.4162H40.2699H40.1234H39.9768H39.83H39.6831H39.5361H39.389H39.2418H39.0944H38.9469H38.7994H38.6517H38.5039H38.3561H38.2081H38.06H37.9119H37.7637H37.6154H37.467H37.3185H37.17H37.0214H36.8728H36.724H36.5753H36.4264H36.2775H36.1286H35.9796H35.8306H35.6816H35.5325H35.3834H35.2342H35.085H34.9358H34.7866H34.6374H34.4881H34.3389H34.1896H34.0404H33.8911H33.7419H33.5926H33.4434H33.2942H33.145H32.9958H32.8466H32.6975H32.5484H32.3993H32.2503H32.1013H31.9523H31.8034H31.6546H31.5058H31.357H31.2083H31.0597H30.9111H30.7626H30.6142H30.4659H30.3176H30.1695H30.0214H29.8734H29.7254H29.5776H29.4299H29.2823H29.1348H28.9874H28.8401H28.6929H28.5458H28.3989H28.2521H28.1054H27.9589H27.8124H27.6662H27.52H27.374H27.2282H27.0825H26.9369H26.7915H26.6463H26.5012H26.3563H26.2116H26.0671H25.9227H25.7785H25.6345H25.4907H25.347H25.2036H25.0603H24.9173H24.7744H24.6318H24.4894H24.3471H24.2051H24.0634H23.9218H23.7805H23.6394H23.4985H23.3578H23.2174H23.0773H22.9374H22.7977H22.6583H22.5191H22.3802H22.2416H22.1032H21.9651H21.8273H21.6897H21.5524H21.4154H21.2787H21.1423H21.0061H20.8703H20.7347H20.5995H20.4645H20.3299H20.1956H20.0616H19.9279H19.7945H19.6614H19.5287H19.3963H19.2642H19.1325H19.0011H18.8701H18.7393H18.609H18.479H18.3494H18.2201H18.0911H17.9626H17.8344H17.7066H17.5791H17.4521H17.3254H17.1991H17.0732H16.9477H16.8225H16.6978H16.5735H16.4496H16.3261H16.203H16.0803H15.958H15.8362H15.7148H15.5938H15.4732H15.3531H15.2334H15.1141H14.9953H14.877H14.759H14.6416H14.5246H14.408H14.292H14.1763H14.0612H13.9465H13.8323H13.7186H13.6054H13.4927H13.3804H13.2686H13.1574H13.0466H12.9363H12.8266H12.7173H12.6086H12.5004H12.3926H12.2855H12.1788H12.0727H11.9671H11.862H11.7575H11.6535H11.5501H11.4472H11.3448H11.243H11.1418H11.0411H10.941H10.8415H10.7425H10.6441H10.5463H10.4491H10.3524H10.2564H10.1609H10.066H9.97172H9.87804H9.78496H9.69248H9.60062H9.50936H9.41873H9.32871H9.23932H9.15055H9.06241H8.9749H8.88803H8.8018H8.71621H8.63127H8.54697H8.53623C8.51859 178.995 8.5035 178.994 8.49202 178.993C8.44484 178.99 8.39674 178.989 8.36066 178.988C8.3186 178.987 8.26102 178.987 8.20066 178.987C8.16225 178.987 8.12271 178.986 8.08533 178.986C7.87287 178.984 7.58765 178.979 7.25019 178.954C6.57043 178.903 5.69911 178.776 4.82677 178.456C3.95775 178.138 3.11129 177.638 2.44133 176.854C1.77756 176.077 1.23959 174.967 1.06496 173.345L1.06491 173.344C0.939751 172.186 0.977728 171.436 1.33473 169.514C1.49373 168.657 1.70762 167.61 1.98925 166.231C2.36231 164.405 2.85423 161.996 3.49491 158.679C4.74007 152.428 5.71147 147.511 6.48019 143.619C7.57122 138.096 8.25397 134.64 8.73162 132.373C9.13955 130.437 9.38946 129.41 9.60731 128.718C9.81108 128.071 9.98628 127.715 10.2815 127.117L10.3043 127.071L10.3051 127.069C11.9652 123.685 14.936 121.238 18.4041 119.936L18.5506 119.893L19.0884 119.734L20.4107 119.344L20.4363 119.336L20.4616 119.327L35.9681 113.832L35.9952 113.823L46.5423 110.206L46.6298 110.176L46.6316 110.176L46.6337 110.175L46.6343 110.175L46.6376 110.174L46.6386 110.173L46.6662 110.164L46.7349 110.14L46.794 110.12L46.8072 110.116L46.8073 110.115L46.8087 110.115L46.8101 110.115L46.8102 110.115L46.8103 110.114L46.8103 110.114C46.8103 110.114 46.8104 110.114 46.8104 110.114C48.7691 109.442 50.0844 107.599 50.0844 105.527V99.1613C58.935 103.034 68.7366 103.272 78.1734 99.0346V105.527C78.1734 107.599 79.489 109.441 81.4477 110.115C81.4486 110.115 81.4495 110.115 81.4504 110.115L97.955 115.884L105.223 118.424L107.29 119.147L107.768 119.313L107.811 119.329L107.844 119.34L107.847 119.341L107.848 119.341L107.848 119.342L107.849 119.342C107.849 119.342 107.849 119.342 107.85 119.341C108.114 119.422 108.366 119.495 108.614 119.566C109.762 119.895 110.819 120.197 112.531 121.23L112.532 121.231C115.986 123.306 118.333 126.514 119.205 130.736ZM36.5829 112.57L35.9784 112.771C36.1832 112.701 36.384 112.632 36.5811 112.565C36.5817 112.567 36.5823 112.568 36.5829 112.57ZM45.8815 109.376C44.9015 109.712 42.4487 110.553 36.6138 112.553L45.8815 109.376ZM108.123 118.378L107.759 118.251C107.654 118.525 107.636 118.871 107.824 119.29L108.123 118.378Z" fill="#FDFEFF" stroke="#D2E3FF" stroke-width="2"/>
<path d="M23.8448 178.997H23.8541V158.842H3.46337C2.61014 163.257 2.05278 165.971 1.68894 167.742C1.58752 168.236 1.50113 168.657 1.42757 169.02C1.08878 170.696 1.03252 171.117 1.01167 171.967L23.8448 178.997ZM23.8448 178.997H23.814M23.8448 178.997H23.814M23.814 178.997H23.7831M23.814 178.997H23.7831M23.7831 178.997H23.7522M23.7831 178.997H23.7522M23.7522 178.997H23.7213M23.7522 178.997H23.7213M23.7213 178.997H23.6903M23.7213 178.997H23.6903M23.6903 178.997H23.6594M23.6903 178.997H23.6594M23.6594 178.997H23.6284M23.6594 178.997H23.6284M23.6284 178.997H23.5975M23.6284 178.997H23.5975M23.5975 178.997H23.5665M23.5975 178.997H23.5665M23.5665 178.997H23.5355M23.5665 178.997H23.5355M23.5355 178.997H23.5045M23.5355 178.997H23.5045M23.5045 178.997H23.4734M23.5045 178.997H23.4734M23.4734 178.997H23.4424M23.4734 178.997H23.4424M23.4424 178.997H23.4113M23.4424 178.997H23.4113M23.4113 178.997H23.3802M23.4113 178.997H23.3802M23.3802 178.997H23.3491M23.3802 178.997H23.3491M23.3491 178.997H23.318M23.3491 178.997H23.318M23.318 178.997H23.2869M23.318 178.997H23.2869M23.2869 178.997H23.2558M23.2869 178.997H23.2558M23.2558 178.997H23.2246M23.2558 178.997H23.2246M23.2246 178.997H23.1935M23.2246 178.997H23.1935M23.1935 178.997H23.1623M23.1935 178.997H23.1623M23.1623 178.997H23.1311M23.1623 178.997H23.1311M23.1311 178.997H23.0999M23.1311 178.997H23.0999M23.0999 178.997H23.0687M23.0999 178.997H23.0687M23.0687 178.997H23.0374M23.0687 178.997H23.0374M23.0374 178.997H23.0062M23.0374 178.997H23.0062M23.0062 178.997H22.9749M23.0062 178.997H22.9749M22.9749 178.997H22.9436M22.9749 178.997H22.9436M22.9436 178.997H22.9123M22.9436 178.997H22.9123M22.9123 178.997H22.881M22.9123 178.997H22.881M22.881 178.997H22.8497M22.881 178.997H22.8497M22.8497 178.997H22.8184M22.8497 178.997H22.8184M22.8184 178.997H22.787M22.8184 178.997H22.787M22.787 178.997H22.7557M22.787 178.997H22.7557M22.7557 178.997H22.7243M22.7557 178.997H22.7243M22.7243 178.997H22.6929M22.7243 178.997H22.6929M22.6929 178.997H22.6615M22.6929 178.997H22.6615M22.6615 178.997H22.6301M22.6615 178.997H22.6301M22.6301 178.997H22.5987M22.6301 178.997H22.5987M22.5987 178.997H22.5672M22.5987 178.997H22.5672M22.5672 178.997H22.5358M22.5672 178.997H22.5358M22.5358 178.997H22.5043M22.5358 178.997H22.5043M22.5043 178.997H22.4728M22.5043 178.997H22.4728M22.4728 178.997H22.4413M22.4728 178.997H22.4413M22.4413 178.997H22.4098M22.4413 178.997H22.4098M22.4098 178.997H22.3783M22.4098 178.997H22.3783M22.3783 178.997H22.3468M22.3783 178.997H22.3468M22.3468 178.997H22.3152M22.3468 178.997H22.3152M22.3152 178.997H22.2837M22.3152 178.997H22.2837M22.2837 178.997H22.2521M22.2837 178.997H22.2521M22.2521 178.997H22.2205M22.2521 178.997H22.2205M22.2205 178.997H22.1889M22.2205 178.997H22.1889M22.1889 178.997H22.1573M22.1889 178.997H22.1573M22.1573 178.997H22.1257M22.1573 178.997H22.1257M22.1257 178.997H22.0941M22.1257 178.997H22.0941M22.0941 178.997H22.0624M22.0941 178.997H22.0624M22.0624 178.997H22.0308M22.0624 178.997H22.0308M22.0308 178.997H21.9991M22.0308 178.997H21.9991M21.9991 178.997H21.9674M21.9991 178.997H21.9674M21.9674 178.997H21.9357M21.9674 178.997H21.9357M21.9357 178.997H21.904M21.9357 178.997H21.904M21.904 178.997H21.8723M21.904 178.997H21.8723M21.8723 178.997H21.8406M21.8723 178.997H21.8406M21.8406 178.997H21.8089M21.8406 178.997H21.8089M21.8089 178.997H21.7771M21.8089 178.997H21.7771M21.7771 178.997H21.7454M21.7771 178.997H21.7454M21.7454 178.997H21.7136M21.7454 178.997H21.7136M21.7136 178.997H21.6818M21.7136 178.997H21.6818M21.6818 178.997H21.65M21.6818 178.997H21.65M21.65 178.997H21.6182M21.65 178.997H21.6182M21.6182 178.997H21.5864M21.6182 178.997H21.5864M21.5864 178.997H21.5546M21.5864 178.997H21.5546M21.5546 178.997H21.5227M21.5546 178.997H21.5227M21.5227 178.997H21.4909M21.5227 178.997H21.4909M21.4909 178.997H21.459M21.4909 178.997H21.459M21.459 178.997H21.4272M21.459 178.997H21.4272M21.4272 178.997H21.3953M21.4272 178.997H21.3953M21.3953 178.997H21.3634M21.3953 178.997H21.3634M21.3634 178.997H21.3315M21.3634 178.997H21.3315M21.3315 178.997H21.2996M21.3315 178.997H21.2996M21.2996 178.997H21.2676M21.2996 178.997H21.2676M21.2676 178.997H21.2357M21.2676 178.997H21.2357M21.2357 178.997H21.2038M21.2357 178.997H21.2038M21.2038 178.997H21.1718M21.2038 178.997H21.1718M21.1718 178.997H21.1398M21.1718 178.997H21.1398M21.1398 178.997H21.1079M21.1398 178.997H21.1079M21.1079 178.997H21.0759M21.1079 178.997H21.0759M21.0759 178.997H21.0439M21.0759 178.997H21.0439M21.0439 178.997H21.0119M21.0439 178.997H21.0119M21.0119 178.997H20.9799M21.0119 178.997H20.9799M20.9799 178.997H20.9479M20.9799 178.997H20.9479M20.9479 178.997H20.9158M20.9479 178.997H20.9158M20.9158 178.997H20.8838M20.9158 178.997H20.8838M20.8838 178.997H20.8517M20.8838 178.997H20.8517M20.8517 178.997H20.8197M20.8517 178.997H20.8197M20.8197 178.997H20.7876M20.8197 178.997H20.7876M20.7876 178.997H20.7555M20.7876 178.997H20.7555M20.7555 178.997H20.7234M20.7555 178.997H20.7234M20.7234 178.997H20.6913M20.7234 178.997H20.6913M20.6913 178.997H20.6592M20.6913 178.997H20.6592M20.6592 178.997H20.6271M20.6592 178.997H20.6271M20.6271 178.997H20.595M20.6271 178.997H20.595M20.595 178.997H20.5628M20.595 178.997H20.5628M20.5628 178.997H20.5307M20.5628 178.997H20.5307M20.5307 178.997H20.4985M20.5307 178.997H20.4985M20.4985 178.997H20.4664M20.4985 178.997H20.4664M20.4664 178.997H20.4342M20.4664 178.997H20.4342M20.4342 178.997H20.402M20.4342 178.997H20.402M20.402 178.997H20.3698M20.402 178.997H20.3698M20.3698 178.997H20.3376M20.3698 178.997H20.3376M20.3376 178.997H20.3054M20.3376 178.997H20.3054M20.3054 178.997H20.2732M20.3054 178.997H20.2732M20.2732 178.997H20.241M20.2732 178.997H20.241M20.241 178.997H20.2088M20.241 178.997H20.2088M20.2088 178.997H20.1765M20.2088 178.997H20.1765M20.1765 178.997H20.1443M20.1765 178.997H20.1443M20.1443 178.997H20.112M20.1443 178.997H20.112M20.112 178.997H20.0798M20.112 178.997H20.0798M20.0798 178.997H20.0475M20.0798 178.997H20.0475M20.0475 178.997H20.0152M20.0475 178.997H20.0152M20.0152 178.997H19.9829M20.0152 178.997H19.9829M19.9829 178.997H19.9506M19.9829 178.997H19.9506M19.9506 178.997H19.9183M19.9506 178.997H19.9183M19.9183 178.997H19.886M19.9183 178.997H19.886M19.886 178.997H19.8537M19.886 178.997H19.8537M19.8537 178.997H19.8214M19.8537 178.997H19.8214M19.8214 178.997H19.789M19.8214 178.997H19.789M19.789 178.997H19.7567M19.789 178.997H19.7567M19.7567 178.997H19.7244M19.7567 178.997H19.7244M19.7244 178.997H19.692M19.7244 178.997H19.692M19.692 178.997H19.6596M19.692 178.997H19.6596M19.6596 178.997H19.6273M19.6596 178.997H19.6273M19.6273 178.997H19.5949M19.6273 178.997H19.5949M19.5949 178.997H19.5625M19.5949 178.997H19.5625M19.5625 178.997H19.5301M19.5625 178.997H19.5301M19.5301 178.997H19.4977M19.5301 178.997H19.4977M19.4977 178.997H19.4653M19.4977 178.997H19.4653M19.4653 178.997H19.4329M19.4653 178.997H19.4329M19.4329 178.997H19.4005M19.4329 178.997H19.4005M19.4005 178.997H19.3681M19.4005 178.997H19.3681M19.3681 178.997H19.3356M19.3681 178.997H19.3356M19.3356 178.997H19.3032M19.3356 178.997H19.3032M19.3032 178.997H19.2708M19.3032 178.997H19.2708M19.2708 178.997H19.2383M19.2708 178.997H19.2383M19.2383 178.997H19.2059M19.2383 178.997H19.2059M19.2059 178.997H19.1734M19.2059 178.997H19.1734M19.1734 178.997H19.1409M19.1734 178.997H19.1409M19.1409 178.997H19.1085M19.1409 178.997H19.1085M19.1085 178.997H19.076M19.1085 178.997H19.076M19.076 178.997H19.0435M19.076 178.997H19.0435M19.0435 178.997H19.011M19.0435 178.997H19.011M19.011 178.997H18.9785M19.011 178.997H18.9785M18.9785 178.997H18.946M18.9785 178.997H18.946M18.946 178.997H18.9135M18.946 178.997H18.9135M18.9135 178.997H18.881M18.9135 178.997H18.881M18.881 178.997H18.8485M18.881 178.997H18.8485M18.8485 178.997H18.816M18.8485 178.997H18.816M18.816 178.997H18.7834M18.816 178.997H18.7834M18.7834 178.997H18.7509M18.7834 178.997H18.7509M18.7509 178.997H18.7184M18.7509 178.997H18.7184M18.7184 178.997H18.6858M18.7184 178.997H18.6858M18.6858 178.997H18.6533M18.6858 178.997H18.6533M18.6533 178.997H18.6207M18.6533 178.997H18.6207M18.6207 178.997H18.5882M18.6207 178.997H18.5882M18.5882 178.997H18.5556M18.5882 178.997H18.5556M18.5556 178.997H18.523M18.5556 178.997H18.523M18.523 178.997H18.4904M18.523 178.997H18.4904M18.4904 178.997H18.4579M18.4904 178.997H18.4579M18.4579 178.997H18.4253M18.4579 178.997H18.4253M18.4253 178.997H18.3927M18.4253 178.997H18.3927M18.3927 178.997H18.3601M18.3927 178.997H18.3601M18.3601 178.997H18.3275M18.3601 178.997H18.3275M18.3275 178.997H18.2949M18.3275 178.997H18.2949M18.2949 178.997H18.2623M18.2949 178.997H18.2623M18.2623 178.997H18.2297M18.2623 178.997H18.2297M18.2297 178.997H18.1971M18.2297 178.997H18.1971M18.1971 178.997H18.1645M18.1971 178.997H18.1645M18.1645 178.997H18.1318M18.1645 178.997H18.1318M18.1318 178.997H18.0992M18.1318 178.997H18.0992M18.0992 178.997H18.0666M18.0992 178.997H18.0666M18.0666 178.997H18.0339M18.0666 178.997H18.0339M18.0339 178.997H18.0013M18.0339 178.997H18.0013M18.0013 178.997H17.9687M18.0013 178.997H17.9687M17.9687 178.997H17.936M17.9687 178.997H17.936M17.936 178.997H17.9034M17.936 178.997H17.9034M17.9034 178.997H17.8707M17.9034 178.997H17.8707M17.8707 178.997H17.8381M17.8707 178.997H17.8381M17.8381 178.997H17.8054M17.8381 178.997H17.8054M17.8054 178.997H17.7727M17.8054 178.997H17.7727M17.7727 178.997H17.7401M17.7727 178.997H17.7401M17.7401 178.997H17.7074M17.7401 178.997H17.7074M17.7074 178.997H17.6747M17.7074 178.997H17.6747M17.6747 178.997H17.6421M17.6747 178.997H17.6421M17.6421 178.997H17.6094M17.6421 178.997H17.6094M17.6094 178.997H17.5767M17.6094 178.997H17.5767M17.5767 178.997H17.544M17.5767 178.997H17.544M17.544 178.997H17.5113M17.544 178.997H17.5113M17.5113 178.997H17.4787M17.5113 178.997H17.4787M17.4787 178.997H17.446M17.4787 178.997H17.446M17.446 178.997H17.4133M17.446 178.997H17.4133M17.4133 178.997H17.3806M17.4133 178.997H17.3806M17.3806 178.997H17.3479M17.3806 178.997H17.3479M17.3479 178.997H17.3152M17.3479 178.997H17.3152M17.3152 178.997H17.2825M17.3152 178.997H17.2825M17.2825 178.997H17.2498M17.2825 178.997H17.2498M17.2498 178.997H17.2171M17.2498 178.997H17.2171M17.2171 178.997H17.1843M17.2171 178.997H17.1843M17.1843 178.997H17.1516M17.1843 178.997H17.1516M17.1516 178.997H17.1189M17.1516 178.997H17.1189M17.1189 178.997H17.0862M17.1189 178.997H17.0862M17.0862 178.997H17.0535M17.0862 178.997H17.0535M17.0535 178.997H17.0208M17.0535 178.997H17.0208M17.0208 178.997H16.988M17.0208 178.997H16.988M16.988 178.997H16.9553M16.988 178.997H16.9553M16.9553 178.997H16.9226M16.9553 178.997H16.9226M16.9226 178.997H16.8899M16.9226 178.997H16.8899M16.8899 178.997H16.8571M16.8899 178.997H16.8571M16.8571 178.997H16.8244M16.8571 178.997H16.8244M16.8244 178.997H16.7917M16.8244 178.997H16.7917M16.7917 178.997H16.7589M16.7917 178.997H16.7589M16.7589 178.997H16.7262M16.7589 178.997H16.7262M16.7262 178.997H16.6935M16.7262 178.997H16.6935M16.6935 178.997H16.6607M16.6935 178.997H16.6607M16.6607 178.997H16.628M16.6607 178.997H16.628M16.628 178.997H16.5953M16.628 178.997H16.5953M16.5953 178.997H16.5625M16.5953 178.997H16.5625M16.5625 178.997H16.5298M16.5625 178.997H16.5298M16.5298 178.997H16.4971M16.5298 178.997H16.4971M16.4971 178.997H16.4643M16.4971 178.997H16.4643M16.4643 178.997H16.4316M16.4643 178.997H16.4316M16.4316 178.997H16.3988M16.4316 178.997H16.3988M16.3988 178.997H16.3661M16.3988 178.997H16.3661M16.3661 178.997H16.3334M16.3661 178.997H16.3334M16.3334 178.997H16.3006M16.3334 178.997H16.3006M16.3006 178.997H16.2679M16.3006 178.997H16.2679M16.2679 178.997H16.2351M16.2679 178.997H16.2351M16.2351 178.997H16.2024M16.2351 178.997H16.2024M16.2024 178.997H16.1696M16.2024 178.997H16.1696M16.1696 178.997H16.1369M16.1696 178.997H16.1369M16.1369 178.997H16.1042M16.1369 178.997H16.1042M16.1042 178.997H16.0714M16.1042 178.997H16.0714M16.0714 178.997H16.0387M16.0714 178.997H16.0387M16.0387 178.997H16.0059M16.0387 178.997H16.0059M16.0059 178.997H15.9732M16.0059 178.997H15.9732M15.9732 178.997H15.9404M15.9732 178.997H15.9404M15.9404 178.997H15.9077M15.9404 178.997H15.9077M15.9077 178.997H15.875M15.9077 178.997H15.875M15.875 178.997H15.8422M15.875 178.997H15.8422M15.8422 178.997H15.8095M15.8422 178.997H15.8095M15.8095 178.997H15.7767M15.8095 178.997H15.7767M15.7767 178.997H15.744M15.7767 178.997H15.744M15.744 178.997H15.7113M15.744 178.997H15.7113M15.7113 178.997H15.6785M15.7113 178.997H15.6785M15.6785 178.997H15.6458M15.6785 178.997H15.6458M15.6458 178.997H15.6131M15.6458 178.997H15.6131M15.6131 178.997H15.5803M15.6131 178.997H15.5803M15.5803 178.997H15.5476M15.5803 178.997H15.5476M15.5476 178.997H15.5149M15.5476 178.997H15.5149M15.5149 178.997H15.4821M15.5149 178.997H15.4821M15.4821 178.997H15.4494M15.4821 178.997H15.4494M15.4494 178.997H15.4167M15.4494 178.997H15.4167M15.4167 178.997H15.384M15.4167 178.997H15.384M15.384 178.997H15.3512M15.384 178.997H15.3512M15.3512 178.997H15.3185M15.3512 178.997H15.3185M15.3185 178.997H15.2858M15.3185 178.997H15.2858M15.2858 178.997H15.2531M15.2858 178.997H15.2531M15.2531 178.997H15.2204M15.2531 178.997H15.2204M15.2204 178.997H15.1876M15.2204 178.997H15.1876M15.1876 178.997H15.1549M15.1876 178.997H15.1549M15.1549 178.997H15.1222M15.1549 178.997H15.1222M15.1222 178.997H15.0895M15.1222 178.997H15.0895M15.0895 178.997H15.0568M15.0895 178.997H15.0568M15.0568 178.997H15.0241M15.0568 178.997H15.0241M15.0241 178.997H14.9914M15.0241 178.997H14.9914M14.9914 178.997H14.9587M14.9914 178.997H14.9587M14.9587 178.997H14.926M14.9587 178.997H14.926M14.926 178.997H14.8933M14.926 178.997H14.8933M14.8933 178.997H14.8606M14.8933 178.997H14.8606M14.8606 178.997H14.8279M14.8606 178.997H14.8279M14.8279 178.997H14.7952M14.8279 178.997H14.7952M14.7952 178.997H14.7626M14.7952 178.997H14.7626M14.7626 178.997H14.7299M14.7626 178.997H14.7299M14.7299 178.997H14.6972M14.7299 178.997H14.6972M14.6972 178.997H14.6645M14.6972 178.997H14.6645M14.6645 178.997H14.6318M14.6645 178.997H14.6318M14.6318 178.997H14.5992M14.6318 178.997H14.5992M14.5992 178.997H14.5665M14.5992 178.997H14.5665M14.5665 178.997H14.5339M14.5665 178.997H14.5339M14.5339 178.997H14.5012M14.5339 178.997H14.5012M14.5012 178.997H14.4685M14.5012 178.997H14.4685M14.4685 178.997H14.4359M14.4685 178.997H14.4359M14.4359 178.997H14.4032M14.4359 178.997H14.4032M14.4032 178.997H14.3706M14.4032 178.997H14.3706M14.3706 178.997H14.3379M14.3706 178.997H14.3379M14.3379 178.997H14.3053M14.3379 178.997H14.3053M14.3053 178.997H14.2727M14.3053 178.997H14.2727M14.2727 178.997H14.24M14.2727 178.997H14.24M14.24 178.997H14.2074M14.24 178.997H14.2074M14.2074 178.997H14.1748M14.2074 178.997H14.1748M14.1748 178.997H14.1422M14.1748 178.997H14.1422M14.1422 178.997H14.1096M14.1422 178.997H14.1096M14.1096 178.997H14.077M14.1096 178.997H14.077M14.077 178.997H14.0443M14.077 178.997H14.0443M14.0443 178.997H14.0117M14.0443 178.997H14.0117M14.0117 178.997H13.9791M14.0117 178.997H13.9791M13.9791 178.997H13.9466M13.9791 178.997H13.9466M13.9466 178.997H13.914M13.9466 178.997H13.914M13.914 178.997H13.8814M13.914 178.997H13.8814M13.8814 178.997H13.8488M13.8814 178.997H13.8488M13.8488 178.997H13.8162M13.8488 178.997H13.8162M13.8162 178.997H13.7837M13.8162 178.997H13.7837M13.7837 178.997H13.7511M13.7837 178.997H13.7511M13.7511 178.997H13.7185M13.7511 178.997H13.7185M13.7185 178.997H13.686M13.7185 178.997H13.686M13.686 178.997H13.6534M13.686 178.997H13.6534M13.6534 178.997H13.6209M13.6534 178.997H13.6209M13.6209 178.997H13.5883M13.6209 178.997H13.5883M13.5883 178.997H13.5558M13.5883 178.997H13.5558M13.5558 178.997H13.5233M13.5558 178.997H13.5233M13.5233 178.997H13.4908M13.5233 178.997H13.4908M13.4908 178.997H13.4582M13.4908 178.997H13.4582M13.4582 178.997H13.4257M13.4582 178.997H13.4257M13.4257 178.997H13.3932M13.4257 178.997H13.3932M13.3932 178.997H13.3607M13.3932 178.997H13.3607M13.3607 178.997H13.3282M13.3607 178.997H13.3282M13.3282 178.997H13.2957M13.3282 178.997H13.2957M13.2957 178.997H13.2632M13.2957 178.997H13.2632M13.2632 178.997H13.2308M13.2632 178.997H13.2308M13.2308 178.997H13.1983M13.2308 178.997H13.1983M13.1983 178.997H13.1658M13.1983 178.997H13.1658M13.1658 178.997H13.1334M13.1658 178.997H13.1334M13.1334 178.997H13.1009M13.1334 178.997H13.1009M13.1009 178.997H13.0685M13.1009 178.997H13.0685M13.0685 178.997H13.036M13.0685 178.997H13.036M13.036 178.997H13.0036M13.036 178.997H13.0036M13.0036 178.997H12.9711M13.0036 178.997H12.9711M12.9711 178.997H12.9387M12.9711 178.997H12.9387M12.9387 178.997H12.9063M12.9387 178.997H12.9063M12.9063 178.997H12.8739M12.9063 178.997H12.8739M12.8739 178.997H12.8415M12.8739 178.997H12.8415M12.8415 178.997H12.8091M12.8415 178.997H12.8091M12.8091 178.997H12.7767M12.8091 178.997H12.7767M12.7767 178.997H12.7443M12.7767 178.997H12.7443M12.7443 178.997H12.7119M12.7443 178.997H12.7119M12.7119 178.997H12.6796M12.7119 178.997H12.6796M12.6796 178.997H12.6472M12.6796 178.997H12.6472M12.6472 178.997H12.6149M12.6472 178.997H12.6149M12.6149 178.997H12.5825M12.6149 178.997H12.5825M12.5825 178.997H12.5502M12.5825 178.997H12.5502M12.5502 178.997H12.5178M12.5502 178.997H12.5178M12.5178 178.997H12.4855M12.5178 178.997H12.4855M12.4855 178.997H12.4532M12.4855 178.997H12.4532M12.4532 178.997H12.4209M12.4532 178.997H12.4209M12.4209 178.997H12.3886M12.4209 178.997H12.3886M12.3886 178.997H12.3563M12.3886 178.997H12.3563M12.3563 178.997H12.324M12.3563 178.997H12.324M12.324 178.997H12.2917M12.324 178.997H12.2917M12.2917 178.997H12.2594M12.2917 178.997H12.2594M12.2594 178.997H12.2272M12.2594 178.997H12.2272M12.2272 178.997H12.1949M12.2272 178.997H12.1949M12.1949 178.997H12.1627M12.1949 178.997H12.1627M12.1627 178.997H12.1304M12.1627 178.997H12.1304M12.1304 178.997H12.0982M12.1304 178.997H12.0982M12.0982 178.997H12.066M12.0982 178.997H12.066M12.066 178.997H12.0338M12.066 178.997H12.0338M12.0338 178.997H12.0016M12.0338 178.997H12.0016M12.0016 178.997H11.9694M12.0016 178.997H11.9694M11.9694 178.997H11.9372M11.9694 178.997H11.9372M11.9372 178.997H11.905M11.9372 178.997H11.905M11.905 178.997H11.8728M11.905 178.997H11.8728M11.8728 178.997H11.8406M11.8728 178.997H11.8406M11.8406 178.997H11.8085M11.8406 178.997H11.8085M11.8085 178.997H11.7763M11.8085 178.997H11.7763M11.7763 178.997H11.7442M11.7763 178.997H11.7442M11.7442 178.997H11.7121M11.7442 178.997H11.7121M11.7121 178.997H11.68M11.7121 178.997H11.68M11.68 178.997H11.6479M11.68 178.997H11.6479M11.6479 178.997H11.6158M11.6479 178.997H11.6158M11.6158 178.997H11.5837M11.6158 178.997H11.5837M11.5837 178.997H11.5516M11.5837 178.997H11.5516M11.5516 178.997H11.5195M11.5516 178.997H11.5195M11.5195 178.997H11.4874M11.5195 178.997H11.4874M11.4874 178.997H11.4554M11.4874 178.997H11.4554M11.4554 178.997H11.4233M11.4554 178.997H11.4233M11.4233 178.997H11.3913M11.4233 178.997H11.3913M11.3913 178.997H11.3593M11.3913 178.997H11.3593M11.3593 178.997H11.3273M11.3593 178.997H11.3273M11.3273 178.997H11.2953M11.3273 178.997H11.2953M11.2953 178.997H11.2633M11.2953 178.997H11.2633M11.2633 178.997H11.2313M11.2633 178.997H11.2313M11.2313 178.997H11.1993M11.2313 178.997H11.1993M11.1993 178.997H11.1673M11.1993 178.997H11.1673M11.1673 178.997H11.1354M11.1673 178.997H11.1354M11.1354 178.997H11.1034M11.1354 178.997H11.1034M11.1034 178.997H11.0715M11.1034 178.997H11.0715M11.0715 178.997H11.0396M11.0715 178.997H11.0396M11.0396 178.997H11.0077M11.0396 178.997H11.0077M11.0077 178.997H10.9758M11.0077 178.997H10.9758M10.9758 178.997H10.9439M10.9758 178.997H10.9439M10.9439 178.997H10.912M10.9439 178.997H10.912M10.912 178.997H10.8801M10.912 178.997H10.8801M10.8801 178.997H10.8482M10.8801 178.997H10.8482M10.8482 178.997H10.8164M10.8482 178.997H10.8164M10.8164 178.997H10.7846M10.8164 178.997H10.7846M10.7846 178.997H10.7527M10.7846 178.997H10.7527M10.7527 178.997H10.7209M10.7527 178.997H10.7209M10.7209 178.997H10.6891M10.7209 178.997H10.6891M10.6891 178.997H10.6573M10.6891 178.997H10.6573M10.6573 178.997H10.6255M10.6573 178.997H10.6255M10.6255 178.997H10.5937M10.6255 178.997H10.5937M10.5937 178.997H10.562M10.5937 178.997H10.562M10.562 178.997H10.5302M10.562 178.997H10.5302M10.5302 178.997H10.4985M10.5302 178.997H10.4985M10.4985 178.997H10.4668M10.4985 178.997H10.4668M10.4668 178.997H10.4351M10.4668 178.997H10.4351M10.4351 178.997H10.4034M10.4351 178.997H10.4034M10.4034 178.997H10.3717M10.4034 178.997H10.3717M10.3717 178.997H10.34M10.3717 178.997H10.34M10.34 178.997H10.3083M10.34 178.997H10.3083M10.3083 178.997H10.2767M10.3083 178.997H10.2767M10.2767 178.997H10.245M10.2767 178.997H10.245M10.245 178.997H10.2134M10.245 178.997H10.2134M10.2134 178.997H10.1818M10.2134 178.997H10.1818M10.1818 178.997H10.1502M10.1818 178.997H10.1502M10.1502 178.997H10.1186M10.1502 178.997H10.1186M10.1186 178.997H10.087M10.1186 178.997H10.087M10.087 178.997H10.0554M10.087 178.997H10.0554M10.0554 178.997H10.0238M10.0554 178.997H10.0238M10.0238 178.997H9.9923M10.0238 178.997H9.9923M9.9923 178.997H9.96076M9.9923 178.997H9.96076M9.96076 178.997H9.92924M9.96076 178.997H9.92924M9.92924 178.997H9.89774M9.92924 178.997H9.89774M9.89774 178.997H9.86624M9.89774 178.997H9.86624M9.86624 178.997H9.83476M9.86624 178.997H9.83476M9.83476 178.997H9.80329M9.83476 178.997H9.80329M9.80329 178.997H9.77183M9.80329 178.997H9.77183M9.77183 178.997H9.74039M9.77183 178.997H9.74039M9.74039 178.997H9.70896M9.74039 178.997H9.70896M9.70896 178.997H9.67754M9.70896 178.997H9.67754M9.67754 178.997H9.64614M9.67754 178.997H9.64614M9.64614 178.997H9.61475M9.64614 178.997H9.61475M9.61475 178.997H9.58337M9.61475 178.997H9.58337M9.58337 178.997H9.55201M9.58337 178.997H9.55201M9.55201 178.997H9.52066M9.55201 178.997H9.52066M9.52066 178.997H9.48933M9.52066 178.997H9.48933M9.48933 178.997H9.458M9.48933 178.997H9.458M9.458 178.997H9.42669M9.458 178.997H9.42669M9.42669 178.997H9.3954M9.42669 178.997H9.3954M9.3954 178.997H9.36412M9.3954 178.997H9.36412M9.36412 178.997H9.33285M9.36412 178.997H9.33285M9.33285 178.997H9.3016M9.33285 178.997H9.3016M9.3016 178.997H9.27036M9.3016 178.997H9.27036M9.27036 178.997H9.23913M9.27036 178.997H9.23913M9.23913 178.997H9.20792M9.23913 178.997H9.20792M9.20792 178.997H9.17673M9.20792 178.997H9.17673M9.17673 178.997H9.14555M9.17673 178.997H9.14555M9.14555 178.997H9.11438M9.14555 178.997H9.11438M9.11438 178.997H9.08322M9.11438 178.997H9.08322M9.08322 178.997H9.05208M9.08322 178.997H9.05208M9.05208 178.997H9.02096M9.05208 178.997H9.02096M9.02096 178.997H8.98985M9.02096 178.997H8.98985M8.98985 178.997H8.95876M8.98985 178.997H8.95876M8.95876 178.997H8.92768M8.95876 178.997H8.92768M8.92768 178.997H8.89661M8.92768 178.997H8.89661M8.89661 178.997H8.86556M8.89661 178.997H8.86556M8.86556 178.997H8.83453M8.86556 178.997H8.83453M8.83453 178.997H8.80351M8.83453 178.997H8.80351M8.80351 178.997H8.7725M8.80351 178.997H8.7725M8.7725 178.997H8.74151M8.7725 178.997H8.74151M8.74151 178.997H8.71054M8.74151 178.997H8.71054M8.71054 178.997H8.67958M8.71054 178.997H8.67958M8.67958 178.997H8.64863M8.67958 178.997H8.64863M8.64863 178.997H8.6177M8.64863 178.997H8.6177M8.6177 178.997H8.58679M8.6177 178.997H8.58679M8.58679 178.997H8.55589M8.58679 178.997H8.55589M8.55589 178.997H8.53553M8.55589 178.997H8.53553M8.53553 178.997C8.51345 178.995 8.49465 178.994 8.481 178.993C8.43343 178.99 8.38353 178.989 8.34473 178.989C8.31809 178.988 8.26672 178.988 8.21079 178.988C8.15179 178.987 8.08771 178.987 8.04228 178.987C7.80554 178.984 7.48614 178.976 7.11089 178.943C6.35397 178.878 5.39767 178.715 4.47178 178.32C3.55327 177.929 2.68347 177.318 2.0485 176.355C1.4151 175.395 0.962846 174.006 1.01165 171.968L8.53553 178.997Z" fill="#FDFEFF" stroke="#D2E3FF" stroke-width="2"/>
<path d="M50.0844 104.535L50.0843 104.535L50.0843 104.535L50.0843 104.528C50.0843 104.528 50.0843 104.527 50.0842 104.527L50.0842 97.8263C58.9153 102.008 69.011 102.169 78.1728 97.8266L78.1727 103.175L78.1725 110.377H78.163V111.377V111.919C78.163 115.094 76.1359 117.914 73.1272 118.922L73.1271 118.922C67.2356 120.895 60.4184 120.693 55.13 118.922C52.1215 117.915 50.0941 115.094 50.0941 111.919V111.377V110.377H50.0846L50.0844 104.69L50.0844 104.561L50.0844 104.535Z" fill="#FDFEFF" stroke="#D2E3FF" stroke-width="2"/>
<path d="M152.089 178.997H64.1286C61.0109 178.997 58.4834 176.469 58.4834 173.351C58.4834 171.801 59.7409 170.543 61.2919 170.543H154.926C156.477 170.543 157.735 171.801 157.735 173.351C157.735 176.469 155.207 178.997 152.089 178.997Z" fill="#FDFEFF" stroke="#D2E3FF" stroke-width="2"/>
<path d="M69.8904 112.377H146.328C148.167 112.377 149.675 113.886 149.675 115.724V165.196C149.675 167.034 148.167 168.543 146.328 168.543H69.8904C68.0518 168.543 66.5432 167.034 66.5432 165.196V115.724C66.5432 113.886 68.0518 112.377 69.8904 112.377Z" fill="#FDFEFF" stroke="#D2E3FF" stroke-width="2"/>
<path d="M113.39 140.46C113.39 143.376 111.027 145.739 108.111 145.739C105.195 145.739 102.832 143.376 102.832 140.46C102.832 137.545 105.195 135.181 108.111 135.181C111.027 135.181 113.39 137.545 113.39 140.46Z" fill="#FDFEFF" stroke="#D2E3FF" stroke-width="2"/>
<path d="M103.537 143.099C101.781 140.057 103.451 136.387 106.516 135.425C105.455 139.286 107.803 143.344 111.672 144.355C109.307 146.528 105.293 146.141 103.537 143.099Z" fill="#FDFEFF" stroke="#D2E3FF" stroke-width="2"/>
<mask id="path-8-inside-1" fill="white">
<path d="M63.3094 0.0257584C39.9074 0.115064 20.1501 19.2194 20.1501 43.4909V59.9632H107.093C107.093 44.3534 107.093 49.2852 107.093 35.3201C107.093 18.4881 96.7372 14.6107 96.7372 14.6107C83.8589 -1.26847 63.3266 0.0254068 63.3266 0.0254068"/>
</mask>
<path d="M63.3094 0.0257584C39.9074 0.115064 20.1501 19.2194 20.1501 43.4909V59.9632H107.093C107.093 44.3534 107.093 49.2852 107.093 35.3201C107.093 18.4881 96.7372 14.6107 96.7372 14.6107C83.8589 -1.26847 63.3266 0.0254068 63.3266 0.0254068" fill="#FDFEFF"/>
<path d="M20.1501 59.9632H18.1501V61.9632H20.1501V59.9632ZM107.093 59.9632V61.9632H109.093V59.9632H107.093ZM96.7372 14.6107L95.1838 15.8705L95.5265 16.293L96.0359 16.4837L96.7372 14.6107ZM63.3018 -1.97423C38.8159 -1.88078 18.1501 18.1003 18.1501 43.4909H22.1501C22.1501 20.3386 40.999 2.11091 63.317 2.02574L63.3018 -1.97423ZM18.1501 43.4909V59.9632H22.1501V43.4909H18.1501ZM20.1501 61.9632H107.093V57.9632H20.1501V61.9632ZM109.093 59.9632C109.093 59.9327 109.093 59.9023 109.093 59.872C109.093 59.8417 109.093 59.8114 109.093 59.7812C109.093 59.7511 109.093 59.721 109.093 59.6909C109.093 59.6609 109.093 59.631 109.093 59.6011C109.093 59.5712 109.093 59.5415 109.093 59.5117C109.093 59.482 109.093 59.4524 109.093 59.4228C109.093 59.3933 109.093 59.3638 109.093 59.3344C109.093 59.305 109.093 59.2757 109.093 59.2464C109.093 59.2172 109.093 59.188 109.093 59.1589C109.093 59.1298 109.093 59.1008 109.093 59.0718C109.093 59.0429 109.093 59.014 109.093 58.9852C109.093 58.9564 109.093 58.9277 109.093 58.899C109.093 58.8704 109.093 58.8418 109.093 58.8133C109.093 58.7848 109.093 58.7564 109.093 58.728C109.093 58.6996 109.093 58.6714 109.093 58.6432C109.093 58.615 109.093 58.5868 109.093 58.5588C109.093 58.5307 109.093 58.5027 109.093 58.4748C109.093 58.4469 109.093 58.4191 109.093 58.3913C109.093 58.3636 109.093 58.3359 109.093 58.3083C109.093 58.2806 109.093 58.2531 109.093 58.2256C109.093 58.1982 109.093 58.1708 109.093 58.1434C109.093 58.1161 109.093 58.0889 109.093 58.0617C109.093 58.0345 109.093 58.0074 109.093 57.9803C109.093 57.9533 109.093 57.9263 109.093 57.8994C109.093 57.8725 109.093 57.8457 109.093 57.819C109.093 57.7922 109.093 57.7655 109.093 57.7389C109.093 57.7123 109.093 57.6858 109.093 57.6593C109.093 57.6328 109.093 57.6064 109.093 57.5801C109.093 57.5538 109.093 57.5275 109.093 57.5013C109.093 57.4751 109.093 57.449 109.093 57.4229C109.093 57.3969 109.093 57.3709 109.093 57.345C109.093 57.3191 109.093 57.2932 109.093 57.2675C109.093 57.2417 109.093 57.216 109.093 57.1904C109.093 57.1647 109.093 57.1392 109.093 57.1137C109.093 57.0882 109.093 57.0627 109.093 57.0374C109.093 57.012 109.093 56.9867 109.093 56.9615C109.093 56.9363 109.093 56.9111 109.093 56.886C109.093 56.8609 109.093 56.8359 109.093 56.8109C109.093 56.786 109.093 56.7611 109.093 56.7363C109.093 56.7114 109.093 56.6867 109.093 56.662C109.093 56.6373 109.093 56.6127 109.093 56.5881C109.093 56.5636 109.093 56.5391 109.093 56.5147C109.093 56.4902 109.093 56.4659 109.093 56.4416C109.093 56.4173 109.093 56.3931 109.093 56.3689C109.093 56.3447 109.093 56.3206 109.093 56.2966C109.093 56.2726 109.093 56.2486 109.093 56.2247C109.093 56.2008 109.093 56.177 109.093 56.1532C109.093 56.1294 109.093 56.1057 109.093 56.0821C109.093 56.0584 109.093 56.0349 109.093 56.0114C109.093 55.9878 109.093 55.9644 109.093 55.941C109.093 55.9176 109.093 55.8943 109.093 55.871C109.093 55.8478 109.093 55.8246 109.093 55.8014C109.093 55.7783 109.093 55.7552 109.093 55.7322C109.093 55.7092 109.093 55.6863 109.093 55.6634C109.093 55.6405 109.093 55.6177 109.093 55.5949C109.093 55.5722 109.093 55.5495 109.093 55.5269C109.093 55.5042 109.093 55.4817 109.093 55.4591C109.093 55.4366 109.093 55.4142 109.093 55.3918C109.093 55.3694 109.093 55.3471 109.093 55.3248C109.093 55.3026 109.093 55.2804 109.093 55.2582C109.093 55.2361 109.093 55.214 109.093 55.192C109.093 55.1699 109.093 55.148 109.093 55.1261C109.093 55.1042 109.093 55.0823 109.093 55.0606C109.093 55.0388 109.093 55.0171 109.093 54.9954C109.093 54.9737 109.093 54.9521 109.093 54.9306C109.093 54.909 109.093 54.8876 109.093 54.8661C109.093 54.8447 109.093 54.8233 109.093 54.802C109.093 54.7807 109.093 54.7595 109.093 54.7383C109.093 54.7171 109.093 54.696 109.093 54.6749C109.093 54.6538 109.093 54.6328 109.093 54.6119C109.093 54.5909 109.093 54.57 109.093 54.5492C109.093 54.5283 109.093 54.5075 109.093 54.4868C109.093 54.4661 109.093 54.4454 109.093 54.4248C109.093 54.4042 109.093 54.3836 109.093 54.3631C109.093 54.3426 109.093 54.3222 109.093 54.3018C109.093 54.2814 109.093 54.2611 109.093 54.2408C109.093 54.2205 109.093 54.2003 109.093 54.1801C109.093 54.16 109.093 54.1399 109.093 54.1198C109.093 54.0998 109.093 54.0798 109.093 54.0598C109.093 54.0399 109.093 54.02 109.093 54.0002C109.093 53.9804 109.093 53.9606 109.093 53.9409C109.093 53.9211 109.093 53.9015 109.093 53.8819C109.093 53.8622 109.093 53.8427 109.093 53.8232C109.093 53.8037 109.093 53.7842 109.093 53.7648C109.093 53.7454 109.093 53.7261 109.093 53.7068C109.093 53.6875 109.093 53.6683 109.093 53.6491C109.093 53.6299 109.093 53.6108 109.093 53.5917C109.093 53.5726 109.093 53.5536 109.093 53.5346C109.093 53.5156 109.093 53.4967 109.093 53.4779C109.093 53.459 109.093 53.4402 109.093 53.4214C109.093 53.4027 109.093 53.3839 109.093 53.3653C109.093 53.3466 109.093 53.328 109.093 53.3095C109.093 53.2909 109.093 53.2724 109.093 53.2539C109.093 53.2355 109.093 53.2171 109.093 53.1987C109.093 53.1804 109.093 53.1621 109.093 53.1438C109.093 53.1256 109.093 53.1074 109.093 53.0892C109.093 53.0711 109.093 53.053 109.093 53.0349C109.093 53.0169 109.093 52.9989 109.093 52.9809C109.093 52.963 109.093 52.9451 109.093 52.9272C109.093 52.9094 109.093 52.8916 109.093 52.8738C109.093 52.856 109.093 52.8383 109.093 52.8207C109.093 52.803 109.093 52.7854 109.093 52.7679C109.093 52.7503 109.093 52.7328 109.093 52.7153C109.093 52.6979 109.093 52.6804 109.093 52.6631C109.093 52.6457 109.093 52.6284 109.093 52.6111C109.093 52.5938 109.093 52.5766 109.093 52.5594C109.093 52.5423 109.093 52.5251 109.093 52.5081C109.093 52.491 109.093 52.4739 109.093 52.4569C109.093 52.44 109.093 52.423 109.093 52.4061C109.093 52.3892 109.093 52.3724 109.093 52.3556C109.093 52.3388 109.093 52.322 109.093 52.3053C109.093 52.2886 109.093 52.2719 109.093 52.2553C109.093 52.2387 109.093 52.2221 109.093 52.2056C109.093 52.189 109.093 52.1726 109.093 52.1561C109.093 52.1397 109.093 52.1233 109.093 52.1069C109.093 52.0906 109.093 52.0743 109.093 52.058C109.093 52.0417 109.093 52.0255 109.093 52.0093C109.093 51.9932 109.093 51.977 109.093 51.961C109.093 51.9449 109.093 51.9288 109.093 51.9128C109.093 51.8968 109.093 51.8809 109.093 51.865C109.093 51.849 109.093 51.8332 109.093 51.8173C109.093 51.8015 109.093 51.7857 109.093 51.77C109.093 51.7543 109.093 51.7386 109.093 51.7229C109.093 51.7072 109.093 51.6916 109.093 51.6761C109.093 51.6605 109.093 51.645 109.093 51.6295C109.093 51.614 109.093 51.5985 109.093 51.5831C109.093 51.5677 109.093 51.5523 109.093 51.537C109.093 51.5217 109.093 51.5064 109.093 51.4912C109.093 51.4759 109.093 51.4607 109.093 51.4456C109.093 51.4304 109.093 51.4153 109.093 51.4002C109.093 51.3851 109.093 51.3701 109.093 51.3551C109.093 51.3401 109.093 51.3251 109.093 51.3102C109.093 51.2953 109.093 51.2804 109.093 51.2656C109.093 51.2507 109.093 51.2359 109.093 51.2212C109.093 51.2064 109.093 51.1917 109.093 51.177C109.093 51.1623 109.093 51.1477 109.093 51.133C109.093 51.1184 109.093 51.1039 109.093 51.0893C109.093 51.0748 109.093 51.0603 109.093 51.0458C109.093 51.0314 109.093 51.017 109.093 51.0026C109.093 50.9882 109.093 50.9739 109.093 50.9596C109.093 50.9453 109.093 50.931 109.093 50.9168C109.093 50.9025 109.093 50.8883 109.093 50.8742C109.093 50.86 109.093 50.8459 109.093 50.8318C109.093 50.8177 109.093 50.8037 109.093 50.7896C109.093 50.7756 109.093 50.7617 109.093 50.7477C109.093 50.7338 109.093 50.7199 109.093 50.706C109.093 50.6921 109.093 50.6783 109.093 50.6645C109.093 50.6507 109.093 50.6369 109.093 50.6232C109.093 50.6095 109.093 50.5958 109.093 50.5821C109.093 50.5685 109.093 50.5548 109.093 50.5412C109.093 50.5276 109.093 50.5141 109.093 50.5006C109.093 50.487 109.093 50.4736 109.093 50.4601C109.093 50.4466 109.093 50.4332 109.093 50.4198C109.093 50.4064 109.093 50.3931 109.093 50.3798C109.093 50.3665 109.093 50.3532 109.093 50.3399C109.093 50.3266 109.093 50.3134 109.093 50.3002C109.093 50.287 109.093 50.2739 109.093 50.2608C109.093 50.2476 109.093 50.2345 109.093 50.2215C109.093 50.2084 109.093 50.1954 109.093 50.1824C109.093 50.1694 109.093 50.1564 109.093 50.1435C109.093 50.1306 109.093 50.1177 109.093 50.1048C109.093 50.0919 109.093 50.0791 109.093 50.0663C109.093 50.0534 109.093 50.0407 109.093 50.0279C109.093 50.0152 109.093 50.0024 109.093 49.9898C109.093 49.9771 109.093 49.9644 109.093 49.9518C109.093 49.9392 109.093 49.9266 109.093 49.914C109.093 49.9014 109.093 49.8889 109.093 49.8764C109.093 49.8639 109.093 49.8514 109.093 49.8389C109.093 49.8265 109.093 49.814 109.093 49.8017C109.093 49.7893 109.093 49.7769 109.093 49.7646C109.093 49.7522 109.093 49.7399 109.093 49.7276C109.093 49.7153 109.093 49.7031 109.093 49.6909C109.093 49.6786 109.093 49.6664 109.093 49.6543C109.093 49.6421 109.093 49.63 109.093 49.6178C109.093 49.6057 109.093 49.5936 109.093 49.5816C109.093 49.5695 109.093 49.5575 109.093 49.5455C109.093 49.5335 109.093 49.5215 109.093 49.5095C109.093 49.4976 109.093 49.4857 109.093 49.4738C109.093 49.4619 109.093 49.45 109.093 49.4381C109.093 49.4263 109.093 49.4145 109.093 49.4027C109.093 49.3909 109.093 49.3791 109.093 49.3673C109.093 49.3556 109.093 49.3439 109.093 49.3322C109.093 49.3205 109.093 49.3088 109.093 49.2971C109.093 49.2855 109.093 49.2739 109.093 49.2623C109.093 49.2507 109.093 49.2391 109.093 49.2276C109.093 49.216 109.093 49.2045 109.093 49.193C109.093 49.1815 109.093 49.17 109.093 49.1585C109.093 49.1471 109.093 49.1356 109.093 49.1242C109.093 49.1128 109.093 49.1014 109.093 49.0901C109.093 49.0787 109.093 49.0674 109.093 49.056C109.093 49.0447 109.093 49.0334 109.093 49.0222C109.093 49.0109 109.093 48.9996 109.093 48.9884C109.093 48.9772 109.093 48.966 109.093 48.9548C109.093 48.9436 109.093 48.9324 109.093 48.9213C109.093 48.9101 109.093 48.899 109.093 48.8879C109.093 48.8768 109.093 48.8657 109.093 48.8547C109.093 48.8436 109.093 48.8326 109.093 48.8216C109.093 48.8105 109.093 48.7995 109.093 48.7886C109.093 48.7776 109.093 48.7666 109.093 48.7557C109.093 48.7448 109.093 48.7338 109.093 48.7229C109.093 48.7121 109.093 48.7012 109.093 48.6903C109.093 48.6795 109.093 48.6686 109.093 48.6578C109.093 48.647 109.093 48.6362 109.093 48.6254C109.093 48.6146 109.093 48.6038 109.093 48.5931C109.093 48.5824 109.093 48.5716 109.093 48.5609C109.093 48.5502 109.093 48.5395 109.093 48.5288C109.093 48.5182 109.093 48.5075 109.093 48.4969C109.093 48.4862 109.093 48.4756 109.093 48.465C109.093 48.4544 109.093 48.4438 109.093 48.4333C109.093 48.4227 109.093 48.4121 109.093 48.4016C109.093 48.3911 109.093 48.3806 109.093 48.3701C109.093 48.3596 109.093 48.3491 109.093 48.3386C109.093 48.3281 109.093 48.3177 109.093 48.3072C109.093 48.2968 109.093 48.2864 109.093 48.276C109.093 48.2656 109.093 48.2552 109.093 48.2448C109.093 48.2344 109.093 48.2241 109.093 48.2137C109.093 48.2034 109.093 48.193 109.093 48.1827C109.093 48.1724 109.093 48.1621 109.093 48.1518C109.093 48.1415 109.093 48.1313 109.093 48.121C109.093 48.1107 109.093 48.1005 109.093 48.0903C109.093 48.08 109.093 48.0698 109.093 48.0596C109.093 48.0494 109.093 48.0392 109.093 48.029C109.093 48.0189 109.093 48.0087 109.093 47.9985C109.093 47.9884 109.093 47.9782 109.093 47.9681C109.093 47.958 109.093 47.9479 109.093 47.9378C109.093 47.9277 109.093 47.9176 109.093 47.9075C109.093 47.8974 109.093 47.8874 109.093 47.8773C109.093 47.8673 109.093 47.8572 109.093 47.8472C109.093 47.8372 109.093 47.8271 109.093 47.8171C109.093 47.8071 109.093 47.7971 109.093 47.7871C109.093 47.7772 109.093 47.7672 109.093 47.7572C109.093 47.7472 109.093 47.7373 109.093 47.7273C109.093 47.7174 109.093 47.7075 109.093 47.6975C109.093 47.6876 109.093 47.6777 109.093 47.6678C109.093 47.6579 109.093 47.648 109.093 47.6381C109.093 47.6282 109.093 47.6184 109.093 47.6085C109.093 47.5986 109.093 47.5888 109.093 47.5789C109.093 47.5691 109.093 47.5592 109.093 47.5494C109.093 47.5396 109.093 47.5297 109.093 47.5199C109.093 47.5101 109.093 47.5003 109.093 47.4905C109.093 47.4807 109.093 47.4709 109.093 47.4611C109.093 47.4513 109.093 47.4415 109.093 47.4318C109.093 47.422 109.093 47.4122 109.093 47.4025C109.093 47.3927 109.093 47.383 109.093 47.3732C109.093 47.3635 109.093 47.3538 109.093 47.344C109.093 47.3343 109.093 47.3246 109.093 47.3149C109.093 47.3051 109.093 47.2954 109.093 47.2857C109.093 47.276 109.093 47.2663 109.093 47.2566C109.093 47.2469 109.093 47.2373 109.093 47.2276C109.093 47.2179 109.093 47.2082 109.093 47.1985C109.093 47.1889 109.093 47.1792 109.093 47.1695C109.093 47.1599 109.093 47.1502 109.093 47.1406C109.093 47.1309 109.093 47.1213 109.093 47.1116C109.093 47.102 109.093 47.0923 109.093 47.0827C109.093 47.073 109.093 47.0634 109.093 47.0538C109.093 47.0441 109.093 47.0345 109.093 47.0249C109.093 47.0153 109.093 47.0056 109.093 46.996C109.093 46.9864 109.093 46.9768 109.093 46.9672C109.093 46.9576 109.093 46.948 109.093 46.9383C109.093 46.9287 109.093 46.9191 109.093 46.9095C109.093 46.8999 109.093 46.8903 109.093 46.8807C109.093 46.8711 109.093 46.8615 109.093 46.8519C109.093 46.8423 109.093 46.8327 109.093 46.8231C109.093 46.8135 109.093 46.8039 109.093 46.7944C109.093 46.7848 109.093 46.7752 109.093 46.7656C109.093 46.756 109.093 46.7464 109.093 46.7368C109.093 46.7272 109.093 46.7176 109.093 46.708C109.093 46.6984 109.093 46.6888 109.093 46.6793C109.093 46.6697 109.093 46.6601 109.093 46.6505C109.093 46.6409 109.093 46.6313 109.093 46.6217C109.093 46.6121 109.093 46.6025 109.093 46.5929C109.093 46.5833 109.093 46.5737 109.093 46.5641C109.093 46.5545 109.093 46.5449 109.093 46.5353C109.093 46.5257 109.093 46.5161 109.093 46.5065C109.093 46.4969 109.093 46.4873 109.093 46.4777C109.093 46.4681 109.093 46.4584 109.093 46.4488C109.093 46.4392 109.093 46.4296 109.093 46.42C109.093 46.4103 109.093 46.4007 109.093 46.3911C109.093 46.3815 109.093 46.3718 109.093 46.3622C109.093 46.3526 109.093 46.3429 109.093 46.3333C109.093 46.3236 109.093 46.314 109.093 46.3043C109.093 46.2947 109.093 46.285 109.093 46.2754C109.093 46.2657 109.093 46.256 109.093 46.2464C109.093 46.2367 109.093 46.227 109.093 46.2174C109.093 46.2077 109.093 46.198 109.093 46.1883C109.093 46.1786 109.093 46.1689 109.093 46.1592C109.093 46.1495 109.093 46.1398 109.093 46.1301C109.093 46.1204 109.093 46.1107 109.093 46.1009C109.093 46.0912 109.093 46.0815 109.093 46.0717C109.093 46.062 109.093 46.0523 109.093 46.0425C109.093 46.0328 109.093 46.023 109.093 46.0132C109.093 46.0035 109.093 45.9937 109.093 45.9839C109.093 45.9741 109.093 45.9644 109.093 45.9546C109.093 45.9448 109.093 45.935 109.093 45.9252C109.093 45.9153 109.093 45.9055 109.093 45.8957C109.093 45.8859 109.093 45.876 109.093 45.8662C109.093 45.8563 109.093 45.8465 109.093 45.8366C109.093 45.8268 109.093 45.8169 109.093 45.807C109.093 45.7971 109.093 45.7873 109.093 45.7774C109.093 45.7675 109.093 45.7575 109.093 45.7476C109.093 45.7377 109.093 45.7278 109.093 45.7178C109.093 45.7079 109.093 45.698 109.093 45.688C109.093 45.6781 109.093 45.6681 109.093 45.6581C109.093 45.6481 109.093 45.6381 109.093 45.6281C109.093 45.6181 109.093 45.6081 109.093 45.5981C109.093 45.5881 109.093 45.578 109.093 45.568C109.093 45.558 109.093 45.5479 109.093 45.5378C109.093 45.5278 109.093 45.5177 109.093 45.5076C109.093 45.4975 109.093 45.4874 109.093 45.4773C109.093 45.4672 109.093 45.457 109.093 45.4469C109.093 45.4367 109.093 45.4266 109.093 45.4164C109.093 45.4062 109.093 45.3961 109.093 45.3859C109.093 45.3757 109.093 45.3655 109.093 45.3552C109.093 45.345 109.093 45.3348 109.093 45.3245C109.093 45.3143 109.093 45.304 109.093 45.2937C109.093 45.2835 109.093 45.2732 109.093 45.2629C109.093 45.2526 109.093 45.2422 109.093 45.2319C109.093 45.2216 109.093 45.2112 109.093 45.2009C109.093 45.1905 109.093 45.1801 109.093 45.1697C109.093 45.1593 109.093 45.1489 109.093 45.1385C109.093 45.1281 109.093 45.1176 109.093 45.1072C109.093 45.0967 109.093 45.0862 109.093 45.0757C109.093 45.0652 109.093 45.0547 109.093 45.0442C109.093 45.0337 109.093 45.0232 109.093 45.0126C109.093 45.002 109.093 44.9915 109.093 44.9809C109.093 44.9703 109.093 44.9597 109.093 44.9491C109.093 44.9384 109.093 44.9278 109.093 44.9171C109.093 44.9065 109.093 44.8958 109.093 44.8851C109.093 44.8744 109.093 44.8637 109.093 44.8529C109.093 44.8422 109.093 44.8315 109.093 44.8207C109.093 44.8099 109.093 44.7991 109.093 44.7883C109.093 44.7775 109.093 44.7667 109.093 44.7558C109.093 44.745 109.093 44.7341 109.093 44.7233C109.093 44.7124 109.093 44.7015 109.093 44.6905C109.093 44.6796 109.093 44.6687 109.093 44.6577C109.093 44.6468 109.093 44.6358 109.093 44.6248C109.093 44.6138 109.093 44.6027 109.093 44.5917C109.093 44.5807 109.093 44.5696 109.093 44.5585C109.093 44.5474 109.093 44.5363 109.093 44.5252C109.093 44.5141 109.093 44.5029 109.093 44.4917C109.093 44.4806 109.093 44.4694 109.093 44.4582C109.093 44.4469 109.093 44.4357 109.093 44.4244C109.093 44.4132 109.093 44.4019 109.093 44.3906C109.093 44.3793 109.093 44.368 109.093 44.3566C109.093 44.3453 109.093 44.3339 109.093 44.3225C109.093 44.3111 109.093 44.2997 109.093 44.2883C109.093 44.2768 109.093 44.2654 109.093 44.2539C109.093 44.2424 109.093 44.2309 109.093 44.2193C109.093 44.2078 109.093 44.1963 109.093 44.1847C109.093 44.1731 109.093 44.1615 109.093 44.1498C109.093 44.1382 109.093 44.1266 109.093 44.1149C109.093 44.1032 109.093 44.0915 109.093 44.0798C109.093 44.068 109.093 44.0563 109.093 44.0445C109.093 44.0327 109.093 44.0209 109.093 44.0091C109.093 43.9972 109.093 43.9854 109.093 43.9735C109.093 43.9616 109.093 43.9497 109.093 43.9378C109.093 43.9258 109.093 43.9139 109.093 43.9019C109.093 43.8899 109.093 43.8779 109.093 43.8658C109.093 43.8538 109.093 43.8417 109.093 43.8296C109.093 43.8175 109.093 43.8054 109.093 43.7933C109.093 43.7811 109.093 43.7689 109.093 43.7567C109.093 43.7445 109.093 43.7323 109.093 43.72C109.093 43.7078 109.093 43.6955 109.093 43.6832C109.093 43.6709 109.093 43.6585 109.093 43.6461C109.093 43.6338 109.093 43.6214 109.093 43.6089C109.093 43.5965 109.093 43.584 109.093 43.5715C109.093 43.5591 109.093 43.5465 109.093 43.534C109.093 43.5214 109.093 43.5089 109.093 43.4963C109.093 43.4836 109.093 43.471 109.093 43.4583C109.093 43.4457 109.093 43.433 109.093 43.4202C109.093 43.4075 109.093 43.3948 109.093 43.382C109.093 43.3692 109.093 43.3564 109.093 43.3435C109.093 43.3307 109.093 43.3178 109.093 43.3049C109.093 43.292 109.093 43.279 109.093 43.266C109.093 43.2531 109.093 43.24 109.093 43.227C109.093 43.214 109.093 43.2009 109.093 43.1878C109.093 43.1747 109.093 43.1616 109.093 43.1484C109.093 43.1352 109.093 43.122 109.093 43.1088C109.093 43.0956 109.093 43.0823 109.093 43.069C109.093 43.0557 109.093 43.0424 109.093 43.029C109.093 43.0156 109.093 43.0022 109.093 42.9888C109.093 42.9754 109.093 42.9619 109.093 42.9484C109.093 42.9349 109.093 42.9214 109.093 42.9078C109.093 42.8942 109.093 42.8806 109.093 42.867C109.093 42.8534 109.093 42.8397 109.093 42.826C109.093 42.8123 109.093 42.7985 109.093 42.7848C109.093 42.771 109.093 42.7572 109.093 42.7433C109.093 42.7295 109.093 42.7156 109.093 42.7017C109.093 42.6878 109.093 42.6738 109.093 42.6598C109.093 42.6459 109.093 42.6318 109.093 42.6178C109.093 42.6037 109.093 42.5896 109.093 42.5755C109.093 42.5614 109.093 42.5472 109.093 42.533C109.093 42.5188 109.093 42.5045 109.093 42.4902C109.093 42.476 109.093 42.4616 109.093 42.4473C109.093 42.4329 109.093 42.4185 109.093 42.4041C109.093 42.3897 109.093 42.3752 109.093 42.3607C109.093 42.3462 109.093 42.3317 109.093 42.3171C109.093 42.3025 109.093 42.2879 109.093 42.2732C109.093 42.2586 109.093 42.2439 109.093 42.2291C109.093 42.2144 109.093 42.1996 109.093 42.1848C109.093 42.17 109.093 42.1551 109.093 42.1402C109.093 42.1254 109.093 42.1104 109.093 42.0954C109.093 42.0805 109.093 42.0655 109.093 42.0504C109.093 42.0354 109.093 42.0203 109.093 42.0051C109.093 41.99 109.093 41.9748 109.093 41.9596C109.093 41.9444 109.093 41.9291 109.093 41.9139C109.093 41.8986 109.093 41.8832 109.093 41.8678C109.093 41.8525 109.093 41.8371 109.093 41.8216C109.093 41.8061 109.093 41.7906 109.093 41.7751C109.093 41.7595 109.093 41.744 109.093 41.7283C109.093 41.7127 109.093 41.697 109.093 41.6813C109.093 41.6656 109.093 41.6499 109.093 41.6341C109.093 41.6183 109.093 41.6024 109.093 41.5865C109.093 41.5707 109.093 41.5547 109.093 41.5388C109.093 41.5228 109.093 41.5068 109.093 41.4907C109.093 41.4747 109.093 41.4586 109.093 41.4424C109.093 41.4263 109.093 41.4101 109.093 41.3939C109.093 41.3776 109.093 41.3614 109.093 41.345C109.093 41.3287 109.093 41.3124 109.093 41.296C109.093 41.2795 109.093 41.2631 109.093 41.2466C109.093 41.2301 109.093 41.2135 109.093 41.197C109.093 41.1804 109.093 41.1637 109.093 41.1471C109.093 41.1304 109.093 41.1136 109.093 41.0969C109.093 41.0801 109.093 41.0633 109.093 41.0464C109.093 41.0296 109.093 41.0126 109.093 40.9957C109.093 40.9787 109.093 40.9617 109.093 40.9447C109.093 40.9276 109.093 40.9105 109.093 40.8934C109.093 40.8762 109.093 40.8591 109.093 40.8418C109.093 40.8246 109.093 40.8073 109.093 40.79C109.093 40.7726 109.093 40.7552 109.093 40.7378C109.093 40.7204 109.093 40.7029 109.093 40.6854C109.093 40.6679 109.093 40.6503 109.093 40.6327C109.093 40.615 109.093 40.5974 109.093 40.5797C109.093 40.5619 109.093 40.5442 109.093 40.5263C109.093 40.5085 109.093 40.4907 109.093 40.4727C109.093 40.4548 109.093 40.4369 109.093 40.4188C109.093 40.4008 109.093 40.3828 109.093 40.3646C109.093 40.3465 109.093 40.3284 109.093 40.3102C109.093 40.2919 109.093 40.2737 109.093 40.2554C109.093 40.237 109.093 40.2187 109.093 40.2002C109.093 40.1818 109.093 40.1634 109.093 40.1448C109.093 40.1263 109.093 40.1077 109.093 40.0891C109.093 40.0705 109.093 40.0518 109.093 40.0331C109.093 40.0144 109.093 39.9956 109.093 39.9768C109.093 39.9579 109.093 39.9391 109.093 39.9201C109.093 39.9012 109.093 39.8822 109.093 39.8632C109.093 39.8441 109.093 39.825 109.093 39.8059C109.093 39.7867 109.093 39.7675 109.093 39.7483C109.093 39.729 109.093 39.7097 109.093 39.6904C109.093 39.671 109.093 39.6516 109.093 39.6321C109.093 39.6127 109.093 39.5931 109.093 39.5736C109.093 39.554 109.093 39.5344 109.093 39.5147C109.093 39.495 109.093 39.4753 109.093 39.4555C109.093 39.4357 109.093 39.4158 109.093 39.3959C109.093 39.376 109.093 39.3561 109.093 39.3361C109.093 39.316 109.093 39.296 109.093 39.2758C109.093 39.2557 109.093 39.2355 109.093 39.2153C109.093 39.1951 109.093 39.1748 109.093 39.1544C109.093 39.1341 109.093 39.1137 109.093 39.0932C109.093 39.0728 109.093 39.0522 109.093 39.0317C109.093 39.0111 109.093 38.9905 109.093 38.9698C109.093 38.9491 109.093 38.9284 109.093 38.9076C109.093 38.8868 109.093 38.8659 109.093 38.845C109.093 38.8241 109.093 38.8031 109.093 38.7821C109.093 38.761 109.093 38.7399 109.093 38.7188C109.093 38.6976 109.093 38.6764 109.093 38.6552C109.093 38.6339 109.093 38.6126 109.093 38.5912C109.093 38.5698 109.093 38.5484 109.093 38.5269C109.093 38.5054 109.093 38.4838 109.093 38.4622C109.093 38.4406 109.093 38.4189 109.093 38.3971C109.093 38.3754 109.093 38.3536 109.093 38.3318C109.093 38.3099 109.093 38.288 109.093 38.266C109.093 38.244 109.093 38.222 109.093 38.1999C109.093 38.1778 109.093 38.1556 109.093 38.1334C109.093 38.1112 109.093 38.0889 109.093 38.0666C109.093 38.0442 109.093 38.0218 109.093 37.9993C109.093 37.9769 109.093 37.9543 109.093 37.9318C109.093 37.9092 109.093 37.8865 109.093 37.8638C109.093 37.8411 109.093 37.8183 109.093 37.7955C109.093 37.7726 109.093 37.7497 109.093 37.7268C109.093 37.7038 109.093 37.6808 109.093 37.6577C109.093 37.6346 109.093 37.6115 109.093 37.5882C109.093 37.565 109.093 37.5417 109.093 37.5184C109.093 37.4951 109.093 37.4717 109.093 37.4482C109.093 37.4247 109.093 37.4012 109.093 37.3776C109.093 37.354 109.093 37.3303 109.093 37.3066C109.093 37.2829 109.093 37.2591 109.093 37.2352C109.093 37.2114 109.093 37.1875 109.093 37.1635C109.093 37.1395 109.093 37.1154 109.093 37.0913C109.093 37.0672 109.093 37.043 109.093 37.0188C109.093 36.9945 109.093 36.9702 109.093 36.9458C109.093 36.9215 109.093 36.897 109.093 36.8725C109.093 36.848 109.093 36.8234 109.093 36.7988C109.093 36.7741 109.093 36.7494 109.093 36.7247C109.093 36.6999 109.093 36.675 109.093 36.6501C109.093 36.6252 109.093 36.6003 109.093 36.5752C109.093 36.5502 109.093 36.525 109.093 36.4999C109.093 36.4747 109.093 36.4494 109.093 36.4241C109.093 36.3988 109.093 36.3734 109.093 36.348C109.093 36.3225 109.093 36.297 109.093 36.2714C109.093 36.2458 109.093 36.2202 109.093 36.1945C109.093 36.1687 109.093 36.1429 109.093 36.1171C109.093 36.0912 109.093 36.0653 109.093 36.0393C109.093 36.0133 109.093 35.9872 109.093 35.9611C109.093 35.9349 109.093 35.9087 109.093 35.8824C109.093 35.8561 109.093 35.8298 109.093 35.8034C109.093 35.777 109.093 35.7505 109.093 35.7239C109.093 35.6973 109.093 35.6707 109.093 35.644C109.093 35.6173 109.093 35.5905 109.093 35.5637C109.093 35.5368 109.093 35.5099 109.093 35.4829C109.093 35.4559 109.093 35.4289 109.093 35.4017C109.093 35.3746 109.093 35.3474 109.093 35.3201H105.093C105.093 35.3474 105.093 35.3746 105.093 35.4017C105.093 35.4289 105.093 35.4559 105.093 35.4829C105.093 35.5099 105.093 35.5368 105.093 35.5637C105.093 35.5905 105.093 35.6173 105.093 35.644C105.093 35.6707 105.093 35.6973 105.093 35.7239C105.093 35.7505 105.093 35.777 105.093 35.8034C105.093 35.8298 105.093 35.8561 105.093 35.8824C105.093 35.9087 105.093 35.9349 105.093 35.9611C105.093 35.9872 105.093 36.0133 105.093 36.0393C105.093 36.0653 105.093 36.0912 105.093 36.1171C105.093 36.1429 105.093 36.1687 105.093 36.1945C105.093 36.2202 105.093 36.2458 105.093 36.2714C105.093 36.297 105.093 36.3225 105.093 36.348C105.093 36.3734 105.093 36.3988 105.093 36.4241C105.093 36.4494 105.093 36.4747 105.093 36.4999C105.093 36.525 105.093 36.5502 105.093 36.5752C105.093 36.6003 105.093 36.6252 105.093 36.6501C105.093 36.675 105.093 36.6999 105.093 36.7247C105.093 36.7494 105.093 36.7741 105.093 36.7988C105.093 36.8234 105.093 36.848 105.093 36.8725C105.093 36.897 105.093 36.9215 105.093 36.9458C105.093 36.9702 105.093 36.9945 105.093 37.0188C105.093 37.043 105.093 37.0672 105.093 37.0913C105.093 37.1154 105.093 37.1395 105.093 37.1635C105.093 37.1875 105.093 37.2114 105.093 37.2352C105.093 37.2591 105.093 37.2829 105.093 37.3066C105.093 37.3303 105.093 37.354 105.093 37.3776C105.093 37.4012 105.093 37.4247 105.093 37.4482C105.093 37.4717 105.093 37.4951 105.093 37.5184C105.093 37.5417 105.093 37.565 105.093 37.5882C105.093 37.6115 105.093 37.6346 105.093 37.6577C105.093 37.6808 105.093 37.7038 105.093 37.7268C105.093 37.7497 105.093 37.7726 105.093 37.7955C105.093 37.8183 105.093 37.8411 105.093 37.8638C105.093 37.8865 105.093 37.9092 105.093 37.9318C105.093 37.9543 105.093 37.9769 105.093 37.9993C105.093 38.0218 105.093 38.0442 105.093 38.0666C105.093 38.0889 105.093 38.1112 105.093 38.1334C105.093 38.1556 105.093 38.1778 105.093 38.1999C105.093 38.222 105.093 38.244 105.093 38.266C105.093 38.288 105.093 38.3099 105.093 38.3318C105.093 38.3536 105.093 38.3754 105.093 38.3971C105.093 38.4189 105.093 38.4406 105.093 38.4622C105.093 38.4838 105.093 38.5054 105.093 38.5269C105.093 38.5484 105.093 38.5698 105.093 38.5912C105.093 38.6126 105.093 38.6339 105.093 38.6552C105.093 38.6764 105.093 38.6976 105.093 38.7188C105.093 38.7399 105.093 38.761 105.093 38.7821C105.093 38.8031 105.093 38.8241 105.093 38.845C105.093 38.8659 105.093 38.8868 105.093 38.9076C105.093 38.9284 105.093 38.9491 105.093 38.9698C105.093 38.9905 105.093 39.0111 105.093 39.0317C105.093 39.0522 105.093 39.0728 105.093 39.0932C105.093 39.1137 105.093 39.1341 105.093 39.1544C105.093 39.1748 105.093 39.1951 105.093 39.2153C105.093 39.2355 105.093 39.2557 105.093 39.2758C105.093 39.296 105.093 39.316 105.093 39.3361C105.093 39.3561 105.093 39.376 105.093 39.3959C105.093 39.4158 105.093 39.4357 105.093 39.4555C105.093 39.4753 105.093 39.495 105.093 39.5147C105.093 39.5344 105.093 39.554 105.093 39.5736C105.093 39.5931 105.093 39.6127 105.093 39.6321C105.093 39.6516 105.093 39.671 105.093 39.6904C105.093 39.7097 105.093 39.729 105.093 39.7483C105.093 39.7675 105.093 39.7867 105.093 39.8059C105.093 39.825 105.093 39.8441 105.093 39.8632C105.093 39.8822 105.093 39.9012 105.093 39.9201C105.093 39.9391 105.093 39.9579 105.093 39.9768C105.093 39.9956 105.093 40.0144 105.093 40.0331C105.093 40.0518 105.093 40.0705 105.093 40.0891C105.093 40.1077 105.093 40.1263 105.093 40.1448C105.093 40.1634 105.093 40.1818 105.093 40.2002C105.093 40.2187 105.093 40.237 105.093 40.2554C105.093 40.2737 105.093 40.2919 105.093 40.3102C105.093 40.3284 105.093 40.3465 105.093 40.3646C105.093 40.3828 105.093 40.4008 105.093 40.4188C105.093 40.4369 105.093 40.4548 105.093 40.4727C105.093 40.4907 105.093 40.5085 105.093 40.5263C105.093 40.5442 105.093 40.5619 105.093 40.5797C105.093 40.5974 105.093 40.615 105.093 40.6327C105.093 40.6503 105.093 40.6679 105.093 40.6854C105.093 40.7029 105.093 40.7204 105.093 40.7378C105.093 40.7552 105.093 40.7726 105.093 40.79C105.093 40.8073 105.093 40.8246 105.093 40.8418C105.093 40.8591 105.093 40.8762 105.093 40.8934C105.093 40.9105 105.093 40.9276 105.093 40.9447C105.093 40.9617 105.093 40.9787 105.093 40.9957C105.093 41.0126 105.093 41.0296 105.093 41.0464C105.093 41.0633 105.093 41.0801 105.093 41.0969C105.093 41.1136 105.093 41.1304 105.093 41.1471C105.093 41.1637 105.093 41.1804 105.093 41.197C105.093 41.2135 105.093 41.2301 105.093 41.2466C105.093 41.2631 105.093 41.2795 105.093 41.296C105.093 41.3124 105.093 41.3287 105.093 41.345C105.093 41.3614 105.093 41.3776 105.093 41.3939C105.093 41.4101 105.093 41.4263 105.093 41.4424C105.093 41.4586 105.093 41.4747 105.093 41.4907C105.093 41.5068 105.093 41.5228 105.093 41.5388C105.093 41.5547 105.093 41.5707 105.093 41.5865C105.093 41.6024 105.093 41.6183 105.093 41.6341C105.093 41.6499 105.093 41.6656 105.093 41.6813C105.093 41.697 105.093 41.7127 105.093 41.7283C105.093 41.744 105.093 41.7595 105.093 41.7751C105.093 41.7906 105.093 41.8061 105.093 41.8216C105.093 41.8371 105.093 41.8525 105.093 41.8678C105.093 41.8832 105.093 41.8986 105.093 41.9139C105.093 41.9291 105.093 41.9444 105.093 41.9596C105.093 41.9748 105.093 41.99 105.093 42.0051C105.093 42.0203 105.093 42.0354 105.093 42.0504C105.093 42.0655 105.093 42.0805 105.093 42.0954C105.093 42.1104 105.093 42.1254 105.093 42.1402C105.093 42.1551 105.093 42.17 105.093 42.1848C105.093 42.1996 105.093 42.2144 105.093 42.2291C105.093 42.2439 105.093 42.2586 105.093 42.2732C105.093 42.2879 105.093 42.3025 105.093 42.3171C105.093 42.3317 105.093 42.3462 105.093 42.3607C105.093 42.3752 105.093 42.3897 105.093 42.4041C105.093 42.4185 105.093 42.4329 105.093 42.4473C105.093 42.4616 105.093 42.476 105.093 42.4902C105.093 42.5045 105.093 42.5188 105.093 42.533C105.093 42.5472 105.093 42.5614 105.093 42.5755C105.093 42.5896 105.093 42.6037 105.093 42.6178C105.093 42.6318 105.093 42.6459 105.093 42.6598C105.093 42.6738 105.093 42.6878 105.093 42.7017C105.093 42.7156 105.093 42.7295 105.093 42.7433C105.093 42.7572 105.093 42.771 105.093 42.7848C105.093 42.7985 105.093 42.8123 105.093 42.826C105.093 42.8397 105.093 42.8534 105.093 42.867C105.093 42.8806 105.093 42.8942 105.093 42.9078C105.093 42.9214 105.093 42.9349 105.093 42.9484C105.093 42.9619 105.093 42.9754 105.093 42.9888C105.093 43.0022 105.093 43.0156 105.093 43.029C105.093 43.0424 105.093 43.0557 105.093 43.069C105.093 43.0823 105.093 43.0956 105.093 43.1088C105.093 43.122 105.093 43.1352 105.093 43.1484C105.093 43.1616 105.093 43.1747 105.093 43.1878C105.093 43.2009 105.093 43.214 105.093 43.227C105.093 43.24 105.093 43.2531 105.093 43.266C105.093 43.279 105.093 43.292 105.093 43.3049C105.093 43.3178 105.093 43.3307 105.093 43.3435C105.093 43.3564 105.093 43.3692 105.093 43.382C105.093 43.3948 105.093 43.4075 105.093 43.4202C105.093 43.433 105.093 43.4457 105.093 43.4583C105.093 43.471 105.093 43.4836 105.093 43.4963C105.093 43.5089 105.093 43.5214 105.093 43.534C105.093 43.5465 105.093 43.5591 105.093 43.5715C105.093 43.584 105.093 43.5965 105.093 43.6089C105.093 43.6214 105.093 43.6338 105.093 43.6461C105.093 43.6585 105.093 43.6709 105.093 43.6832C105.093 43.6955 105.093 43.7078 105.093 43.72C105.093 43.7323 105.093 43.7445 105.093 43.7567C105.093 43.7689 105.093 43.7811 105.093 43.7933C105.093 43.8054 105.093 43.8175 105.093 43.8296C105.093 43.8417 105.093 43.8538 105.093 43.8658C105.093 43.8779 105.093 43.8899 105.093 43.9019C105.093 43.9139 105.093 43.9258 105.093 43.9378C105.093 43.9497 105.093 43.9616 105.093 43.9735C105.093 43.9854 105.093 43.9972 105.093 44.0091C105.093 44.0209 105.093 44.0327 105.093 44.0445C105.093 44.0563 105.093 44.068 105.093 44.0798C105.093 44.0915 105.093 44.1032 105.093 44.1149C105.093 44.1266 105.093 44.1382 105.093 44.1498C105.093 44.1615 105.093 44.1731 105.093 44.1847C105.093 44.1963 105.093 44.2078 105.093 44.2193C105.093 44.2309 105.093 44.2424 105.093 44.2539C105.093 44.2654 105.093 44.2768 105.093 44.2883C105.093 44.2997 105.093 44.3111 105.093 44.3225C105.093 44.3339 105.093 44.3453 105.093 44.3566C105.093 44.368 105.093 44.3793 105.093 44.3906C105.093 44.4019 105.093 44.4132 105.093 44.4244C105.093 44.4357 105.093 44.4469 105.093 44.4582C105.093 44.4694 105.093 44.4806 105.093 44.4917C105.093 44.5029 105.093 44.5141 105.093 44.5252C105.093 44.5363 105.093 44.5474 105.093 44.5585C105.093 44.5696 105.093 44.5807 105.093 44.5917C105.093 44.6027 105.093 44.6138 105.093 44.6248C105.093 44.6358 105.093 44.6468 105.093 44.6577C105.093 44.6687 105.093 44.6796 105.093 44.6905C105.093 44.7015 105.093 44.7124 105.093 44.7233C105.093 44.7341 105.093 44.745 105.093 44.7558C105.093 44.7667 105.093 44.7775 105.093 44.7883C105.093 44.7991 105.093 44.8099 105.093 44.8207C105.093 44.8315 105.093 44.8422 105.093 44.8529C105.093 44.8637 105.093 44.8744 105.093 44.8851C105.093 44.8958 105.093 44.9065 105.093 44.9171C105.093 44.9278 105.093 44.9384 105.093 44.9491C105.093 44.9597 105.093 44.9703 105.093 44.9809C105.093 44.9915 105.093 45.002 105.093 45.0126C105.093 45.0232 105.093 45.0337 105.093 45.0442C105.093 45.0547 105.093 45.0652 105.093 45.0757C105.093 45.0862 105.093 45.0967 105.093 45.1072C105.093 45.1176 105.093 45.1281 105.093 45.1385C105.093 45.1489 105.093 45.1593 105.093 45.1697C105.093 45.1801 105.093 45.1905 105.093 45.2009C105.093 45.2112 105.093 45.2216 105.093 45.2319C105.093 45.2422 105.093 45.2526 105.093 45.2629C105.093 45.2732 105.093 45.2835 105.093 45.2937C105.093 45.304 105.093 45.3143 105.093 45.3245C105.093 45.3348 105.093 45.345 105.093 45.3552C105.093 45.3655 105.093 45.3757 105.093 45.3859C105.093 45.3961 105.093 45.4062 105.093 45.4164C105.093 45.4266 105.093 45.4367 105.093 45.4469C105.093 45.457 105.093 45.4672 105.093 45.4773C105.093 45.4874 105.093 45.4975 105.093 45.5076C105.093 45.5177 105.093 45.5278 105.093 45.5378C105.093 45.5479 105.093 45.558 105.093 45.568C105.093 45.578 105.093 45.5881 105.093 45.5981C105.093 45.6081 105.093 45.6181 105.093 45.6281C105.093 45.6381 105.093 45.6481 105.093 45.6581C105.093 45.6681 105.093 45.6781 105.093 45.688C105.093 45.698 105.093 45.7079 105.093 45.7178C105.093 45.7278 105.093 45.7377 105.093 45.7476C105.093 45.7575 105.093 45.7675 105.093 45.7774C105.093 45.7873 105.093 45.7971 105.093 45.807C105.093 45.8169 105.093 45.8268 105.093 45.8366C105.093 45.8465 105.093 45.8563 105.093 45.8662C105.093 45.876 105.093 45.8859 105.093 45.8957C105.093 45.9055 105.093 45.9153 105.093 45.9252C105.093 45.935 105.093 45.9448 105.093 45.9546C105.093 45.9644 105.093 45.9741 105.093 45.9839C105.093 45.9937 105.093 46.0035 105.093 46.0132C105.093 46.023 105.093 46.0328 105.093 46.0425C105.093 46.0523 105.093 46.062 105.093 46.0717C105.093 46.0815 105.093 46.0912 105.093 46.1009C105.093 46.1107 105.093 46.1204 105.093 46.1301C105.093 46.1398 105.093 46.1495 105.093 46.1592C105.093 46.1689 105.093 46.1786 105.093 46.1883C105.093 46.198 105.093 46.2077 105.093 46.2174C105.093 46.227 105.093 46.2367 105.093 46.2464C105.093 46.256 105.093 46.2657 105.093 46.2754C105.093 46.285 105.093 46.2947 105.093 46.3043C105.093 46.314 105.093 46.3236 105.093 46.3333C105.093 46.3429 105.093 46.3526 105.093 46.3622C105.093 46.3718 105.093 46.3815 105.093 46.3911C105.093 46.4007 105.093 46.4103 105.093 46.42C105.093 46.4296 105.093 46.4392 105.093 46.4488C105.093 46.4584 105.093 46.4681 105.093 46.4777C105.093 46.4873 105.093 46.4969 105.093 46.5065C105.093 46.5161 105.093 46.5257 105.093 46.5353C105.093 46.5449 105.093 46.5545 105.093 46.5641C105.093 46.5737 105.093 46.5833 105.093 46.5929C105.093 46.6025 105.093 46.6121 105.093 46.6217C105.093 46.6313 105.093 46.6409 105.093 46.6505C105.093 46.6601 105.093 46.6697 105.093 46.6793C105.093 46.6888 105.093 46.6984 105.093 46.708C105.093 46.7176 105.093 46.7272 105.093 46.7368C105.093 46.7464 105.093 46.756 105.093 46.7656C105.093 46.7752 105.093 46.7848 105.093 46.7944C105.093 46.8039 105.093 46.8135 105.093 46.8231C105.093 46.8327 105.093 46.8423 105.093 46.8519C105.093 46.8615 105.093 46.8711 105.093 46.8807C105.093 46.8903 105.093 46.8999 105.093 46.9095C105.093 46.9191 105.093 46.9287 105.093 46.9383C105.093 46.948 105.093 46.9576 105.093 46.9672C105.093 46.9768 105.093 46.9864 105.093 46.996C105.093 47.0056 105.093 47.0153 105.093 47.0249C105.093 47.0345 105.093 47.0441 105.093 47.0538C105.093 47.0634 105.093 47.073 105.093 47.0827C105.093 47.0923 105.093 47.102 105.093 47.1116C105.093 47.1213 105.093 47.1309 105.093 47.1406C105.093 47.1502 105.093 47.1599 105.093 47.1695C105.093 47.1792 105.093 47.1889 105.093 47.1985C105.093 47.2082 105.093 47.2179 105.093 47.2276C105.093 47.2373 105.093 47.2469 105.093 47.2566C105.093 47.2663 105.093 47.276 105.093 47.2857C105.093 47.2954 105.093 47.3051 105.093 47.3149C105.093 47.3246 105.093 47.3343 105.093 47.344C105.093 47.3538 105.093 47.3635 105.093 47.3732C105.093 47.383 105.093 47.3927 105.093 47.4025C105.093 47.4122 105.093 47.422 105.093 47.4318C105.093 47.4415 105.093 47.4513 105.093 47.4611C105.093 47.4709 105.093 47.4807 105.093 47.4905C105.093 47.5003 105.093 47.5101 105.093 47.5199C105.093 47.5297 105.093 47.5396 105.093 47.5494C105.093 47.5592 105.093 47.5691 105.093 47.5789C105.093 47.5888 105.093 47.5986 105.093 47.6085C105.093 47.6184 105.093 47.6282 105.093 47.6381C105.093 47.648 105.093 47.6579 105.093 47.6678C105.093 47.6777 105.093 47.6876 105.093 47.6975C105.093 47.7075 105.093 47.7174 105.093 47.7273C105.093 47.7373 105.093 47.7472 105.093 47.7572C105.093 47.7672 105.093 47.7772 105.093 47.7871C105.093 47.7971 105.093 47.8071 105.093 47.8171C105.093 47.8271 105.093 47.8372 105.093 47.8472C105.093 47.8572 105.093 47.8673 105.093 47.8773C105.093 47.8874 105.093 47.8974 105.093 47.9075C105.093 47.9176 105.093 47.9277 105.093 47.9378C105.093 47.9479 105.093 47.958 105.093 47.9681C105.093 47.9782 105.093 47.9884 105.093 47.9985C105.093 48.0087 105.093 48.0189 105.093 48.029C105.093 48.0392 105.093 48.0494 105.093 48.0596C105.093 48.0698 105.093 48.08 105.093 48.0903C105.093 48.1005 105.093 48.1107 105.093 48.121C105.093 48.1313 105.093 48.1415 105.093 48.1518C105.093 48.1621 105.093 48.1724 105.093 48.1827C105.093 48.193 105.093 48.2034 105.093 48.2137C105.093 48.2241 105.093 48.2344 105.093 48.2448C105.093 48.2552 105.093 48.2656 105.093 48.276C105.093 48.2864 105.093 48.2968 105.093 48.3072C105.093 48.3177 105.093 48.3281 105.093 48.3386C105.093 48.3491 105.093 48.3596 105.093 48.3701C105.093 48.3806 105.093 48.3911 105.093 48.4016C105.093 48.4121 105.093 48.4227 105.093 48.4333C105.093 48.4438 105.093 48.4544 105.093 48.465C105.093 48.4756 105.093 48.4862 105.093 48.4969C105.093 48.5075 105.093 48.5182 105.093 48.5288C105.093 48.5395 105.093 48.5502 105.093 48.5609C105.093 48.5716 105.093 48.5824 105.093 48.5931C105.093 48.6038 105.093 48.6146 105.093 48.6254C105.093 48.6362 105.093 48.647 105.093 48.6578C105.093 48.6686 105.093 48.6795 105.093 48.6903C105.093 48.7012 105.093 48.7121 105.093 48.7229C105.093 48.7338 105.093 48.7448 105.093 48.7557C105.093 48.7666 105.093 48.7776 105.093 48.7886C105.093 48.7995 105.093 48.8105 105.093 48.8216C105.093 48.8326 105.093 48.8436 105.093 48.8547C105.093 48.8657 105.093 48.8768 105.093 48.8879C105.093 48.899 105.093 48.9101 105.093 48.9213C105.093 48.9324 105.093 48.9436 105.093 48.9548C105.093 48.966 105.093 48.9772 105.093 48.9884C105.093 48.9996 105.093 49.0109 105.093 49.0222C105.093 49.0334 105.093 49.0447 105.093 49.056C105.093 49.0674 105.093 49.0787 105.093 49.0901C105.093 49.1014 105.093 49.1128 105.093 49.1242C105.093 49.1356 105.093 49.1471 105.093 49.1585C105.093 49.17 105.093 49.1815 105.093 49.193C105.093 49.2045 105.093 49.216 105.093 49.2276C105.093 49.2391 105.093 49.2507 105.093 49.2623C105.093 49.2739 105.093 49.2855 105.093 49.2971C105.093 49.3088 105.093 49.3205 105.093 49.3322C105.093 49.3439 105.093 49.3556 105.093 49.3673C105.093 49.3791 105.093 49.3909 105.093 49.4027C105.093 49.4145 105.093 49.4263 105.093 49.4381C105.093 49.45 105.093 49.4619 105.093 49.4738C105.093 49.4857 105.093 49.4976 105.093 49.5095C105.093 49.5215 105.093 49.5335 105.093 49.5455C105.093 49.5575 105.093 49.5695 105.093 49.5816C105.093 49.5936 105.093 49.6057 105.093 49.6178C105.093 49.63 105.093 49.6421 105.093 49.6543C105.093 49.6664 105.093 49.6786 105.093 49.6909C105.093 49.7031 105.093 49.7153 105.093 49.7276C105.093 49.7399 105.093 49.7522 105.093 49.7646C105.093 49.7769 105.093 49.7893 105.093 49.8017C105.093 49.814 105.093 49.8265 105.093 49.8389C105.093 49.8514 105.093 49.8639 105.093 49.8764C105.093 49.8889 105.093 49.9014 105.093 49.914C105.093 49.9266 105.093 49.9392 105.093 49.9518C105.093 49.9644 105.093 49.9771 105.093 49.9898C105.093 50.0024 105.093 50.0152 105.093 50.0279C105.093 50.0407 105.093 50.0534 105.093 50.0663C105.093 50.0791 105.093 50.0919 105.093 50.1048C105.093 50.1177 105.093 50.1306 105.093 50.1435C105.093 50.1564 105.093 50.1694 105.093 50.1824C105.093 50.1954 105.093 50.2084 105.093 50.2215C105.093 50.2345 105.093 50.2476 105.093 50.2608C105.093 50.2739 105.093 50.287 105.093 50.3002C105.093 50.3134 105.093 50.3266 105.093 50.3399C105.093 50.3532 105.093 50.3665 105.093 50.3798C105.093 50.3931 105.093 50.4064 105.093 50.4198C105.093 50.4332 105.093 50.4466 105.093 50.4601C105.093 50.4736 105.093 50.487 105.093 50.5006C105.093 50.5141 105.093 50.5276 105.093 50.5412C105.093 50.5548 105.093 50.5685 105.093 50.5821C105.093 50.5958 105.093 50.6095 105.093 50.6232C105.093 50.6369 105.093 50.6507 105.093 50.6645C105.093 50.6783 105.093 50.6921 105.093 50.706C105.093 50.7199 105.093 50.7338 105.093 50.7477C105.093 50.7617 105.093 50.7756 105.093 50.7896C105.093 50.8037 105.093 50.8177 105.093 50.8318C105.093 50.8459 105.093 50.86 105.093 50.8742C105.093 50.8883 105.093 50.9025 105.093 50.9168C105.093 50.931 105.093 50.9453 105.093 50.9596C105.093 50.9739 105.093 50.9882 105.093 51.0026C105.093 51.017 105.093 51.0314 105.093 51.0458C105.093 51.0603 105.093 51.0748 105.093 51.0893C105.093 51.1039 105.093 51.1184 105.093 51.133C105.093 51.1477 105.093 51.1623 105.093 51.177C105.093 51.1917 105.093 51.2064 105.093 51.2212C105.093 51.2359 105.093 51.2507 105.093 51.2656C105.093 51.2804 105.093 51.2953 105.093 51.3102C105.093 51.3251 105.093 51.3401 105.093 51.3551C105.093 51.3701 105.093 51.3851 105.093 51.4002C105.093 51.4153 105.093 51.4304 105.093 51.4456C105.093 51.4607 105.093 51.4759 105.093 51.4912C105.093 51.5064 105.093 51.5217 105.093 51.537C105.093 51.5523 105.093 51.5677 105.093 51.5831C105.093 51.5985 105.093 51.614 105.093 51.6295C105.093 51.645 105.093 51.6605 105.093 51.6761C105.093 51.6916 105.093 51.7072 105.093 51.7229C105.093 51.7386 105.093 51.7543 105.093 51.77C105.093 51.7857 105.093 51.8015 105.093 51.8173C105.093 51.8332 105.093 51.849 105.093 51.865C105.093 51.8809 105.093 51.8968 105.093 51.9128C105.093 51.9288 105.093 51.9449 105.093 51.961C105.093 51.977 105.093 51.9932 105.093 52.0093C105.093 52.0255 105.093 52.0417 105.093 52.058C105.093 52.0743 105.093 52.0906 105.093 52.1069C105.093 52.1233 105.093 52.1397 105.093 52.1561C105.093 52.1726 105.093 52.189 105.093 52.2056C105.093 52.2221 105.093 52.2387 105.093 52.2553C105.093 52.2719 105.093 52.2886 105.093 52.3053C105.093 52.322 105.093 52.3388 105.093 52.3556C105.093 52.3724 105.093 52.3892 105.093 52.4061C105.093 52.423 105.093 52.44 105.093 52.4569C105.093 52.4739 105.093 52.491 105.093 52.5081C105.093 52.5251 105.093 52.5423 105.093 52.5594C105.093 52.5766 105.093 52.5938 105.093 52.6111C105.093 52.6284 105.093 52.6457 105.093 52.6631C105.093 52.6804 105.093 52.6979 105.093 52.7153C105.093 52.7328 105.093 52.7503 105.093 52.7679C105.093 52.7854 105.093 52.803 105.093 52.8207C105.093 52.8383 105.093 52.856 105.093 52.8738C105.093 52.8916 105.093 52.9094 105.093 52.9272C105.093 52.9451 105.093 52.963 105.093 52.9809C105.093 52.9989 105.093 53.0169 105.093 53.0349C105.093 53.053 105.093 53.0711 105.093 53.0892C105.093 53.1074 105.093 53.1256 105.093 53.1438C105.093 53.1621 105.093 53.1804 105.093 53.1987C105.093 53.2171 105.093 53.2355 105.093 53.2539C105.093 53.2724 105.093 53.2909 105.093 53.3095C105.093 53.328 105.093 53.3466 105.093 53.3653C105.093 53.3839 105.093 53.4027 105.093 53.4214C105.093 53.4402 105.093 53.459 105.093 53.4779C105.093 53.4967 105.093 53.5156 105.093 53.5346C105.093 53.5536 105.093 53.5726 105.093 53.5917C105.093 53.6108 105.093 53.6299 105.093 53.6491C105.093 53.6683 105.093 53.6875 105.093 53.7068C105.093 53.7261 105.093 53.7454 105.093 53.7648C105.093 53.7842 105.093 53.8037 105.093 53.8232C105.093 53.8427 105.093 53.8622 105.093 53.8819C105.093 53.9015 105.093 53.9211 105.093 53.9409C105.093 53.9606 105.093 53.9804 105.093 54.0002C105.093 54.02 105.093 54.0399 105.093 54.0598C105.093 54.0798 105.093 54.0998 105.093 54.1198C105.093 54.1399 105.093 54.16 105.093 54.1801C105.093 54.2003 105.093 54.2205 105.093 54.2408C105.093 54.2611 105.093 54.2814 105.093 54.3018C105.093 54.3222 105.093 54.3426 105.093 54.3631C105.093 54.3836 105.093 54.4042 105.093 54.4248C105.093 54.4454 105.093 54.4661 105.093 54.4868C105.093 54.5075 105.093 54.5283 105.093 54.5492C105.093 54.57 105.093 54.5909 105.093 54.6119C105.093 54.6328 105.093 54.6538 105.093 54.6749C105.093 54.696 105.093 54.7171 105.093 54.7383C105.093 54.7595 105.093 54.7807 105.093 54.802C105.093 54.8233 105.093 54.8447 105.093 54.8661C105.093 54.8876 105.093 54.909 105.093 54.9306C105.093 54.9521 105.093 54.9737 105.093 54.9954C105.093 55.0171 105.093 55.0388 105.093 55.0606C105.093 55.0823 105.093 55.1042 105.093 55.1261C105.093 55.148 105.093 55.1699 105.093 55.192C105.093 55.214 105.093 55.2361 105.093 55.2582C105.093 55.2804 105.093 55.3026 105.093 55.3248C105.093 55.3471 105.093 55.3694 105.093 55.3918C105.093 55.4142 105.093 55.4366 105.093 55.4591C105.093 55.4817 105.093 55.5042 105.093 55.5269C105.093 55.5495 105.093 55.5722 105.093 55.5949C105.093 55.6177 105.093 55.6405 105.093 55.6634C105.093 55.6863 105.093 55.7092 105.093 55.7322C105.093 55.7552 105.093 55.7783 105.093 55.8014C105.093 55.8246 105.093 55.8478 105.093 55.871C105.093 55.8943 105.093 55.9176 105.093 55.941C105.093 55.9644 105.093 55.9878 105.093 56.0114C105.093 56.0349 105.093 56.0584 105.093 56.0821C105.093 56.1057 105.093 56.1294 105.093 56.1532C105.093 56.177 105.093 56.2008 105.093 56.2247C105.093 56.2486 105.093 56.2726 105.093 56.2966C105.093 56.3206 105.093 56.3447 105.093 56.3689C105.093 56.3931 105.093 56.4173 105.093 56.4416C105.093 56.4659 105.093 56.4902 105.093 56.5147C105.093 56.5391 105.093 56.5636 105.093 56.5881C105.093 56.6127 105.093 56.6373 105.093 56.662C105.093 56.6867 105.093 56.7114 105.093 56.7363C105.093 56.7611 105.093 56.786 105.093 56.8109C105.093 56.8359 105.093 56.8609 105.093 56.886C105.093 56.9111 105.093 56.9363 105.093 56.9615C105.093 56.9867 105.093 57.012 105.093 57.0374C105.093 57.0627 105.093 57.0882 105.093 57.1137C105.093 57.1392 105.093 57.1647 105.093 57.1904C105.093 57.216 105.093 57.2417 105.093 57.2675C105.093 57.2932 105.093 57.3191 105.093 57.345C105.093 57.3709 105.093 57.3969 105.093 57.4229C105.093 57.449 105.093 57.4751 105.093 57.5013C105.093 57.5275 105.093 57.5538 105.093 57.5801C105.093 57.6064 105.093 57.6328 105.093 57.6593C105.093 57.6858 105.093 57.7123 105.093 57.7389C105.093 57.7655 105.093 57.7922 105.093 57.819C105.093 57.8457 105.093 57.8725 105.093 57.8994C105.093 57.9263 105.093 57.9533 105.093 57.9803C105.093 58.0074 105.093 58.0345 105.093 58.0617C105.093 58.0889 105.093 58.1161 105.093 58.1434C105.093 58.1708 105.093 58.1982 105.093 58.2256C105.093 58.2531 105.093 58.2806 105.093 58.3083C105.093 58.3359 105.093 58.3636 105.093 58.3913C105.093 58.4191 105.093 58.4469 105.093 58.4748C105.093 58.5027 105.093 58.5307 105.093 58.5588C105.093 58.5868 105.093 58.615 105.093 58.6432C105.093 58.6714 105.093 58.6996 105.093 58.728C105.093 58.7564 105.093 58.7848 105.093 58.8133C105.093 58.8418 105.093 58.8704 105.093 58.899C105.093 58.9277 105.093 58.9564 105.093 58.9852C105.093 59.014 105.093 59.0429 105.093 59.0718C105.093 59.1008 105.093 59.1298 105.093 59.1589C105.093 59.188 105.093 59.2172 105.093 59.2464C105.093 59.2757 105.093 59.305 105.093 59.3344C105.093 59.3638 105.093 59.3933 105.093 59.4228C105.093 59.4524 105.093 59.482 105.093 59.5117C105.093 59.5415 105.093 59.5712 105.093 59.6011C105.093 59.631 105.093 59.6609 105.093 59.6909C105.093 59.721 105.093 59.7511 105.093 59.7812C105.093 59.8114 105.093 59.8417 105.093 59.872C105.093 59.9023 105.093 59.9327 105.093 59.9632H109.093ZM109.093 35.3201C109.093 26.4568 106.352 20.8169 103.445 17.3649C102.005 15.6553 100.553 14.5176 99.4397 13.7991C98.883 13.4399 98.4099 13.1848 98.0629 13.0146C97.8894 12.9295 97.7471 12.8654 97.6414 12.8201C97.5885 12.7974 97.5447 12.7794 97.5107 12.7658C97.4937 12.759 97.4791 12.7533 97.467 12.7486C97.461 12.7463 97.4556 12.7442 97.4508 12.7424C97.4485 12.7415 97.4462 12.7406 97.4442 12.7398C97.4431 12.7395 97.4417 12.7389 97.4412 12.7387C97.4398 12.7382 97.4385 12.7377 96.7372 14.6107C96.0359 16.4837 96.0346 16.4832 96.0334 16.4828C96.033 16.4827 96.0318 16.4822 96.0311 16.4819C96.0297 16.4814 96.0284 16.4809 96.0273 16.4805C96.025 16.4796 96.0234 16.479 96.0223 16.4786C96.0202 16.4778 96.0205 16.4779 96.0231 16.4789C96.0282 16.481 96.0426 16.4868 96.0656 16.4966C96.1115 16.5163 96.1917 16.552 96.3013 16.6058C96.5207 16.7134 96.8566 16.8927 97.2708 17.16C98.0991 17.6946 99.2365 18.5781 100.385 19.9419C102.655 22.6366 105.093 27.3515 105.093 35.3201H109.093ZM98.2905 13.3509C91.4935 4.97002 82.6971 1.15019 75.681 -0.578554C72.1688 -1.44397 69.0763 -1.79262 66.8551 -1.9251C65.7432 -1.99142 64.846 -2.00379 64.2192 -1.99912C63.9056 -1.99679 63.6594 -1.99019 63.4875 -1.98392C63.4015 -1.98078 63.334 -1.97773 63.286 -1.97532C63.262 -1.97412 63.2428 -1.97308 63.2286 -1.97227C63.2214 -1.97187 63.2156 -1.97153 63.2109 -1.97125C63.2086 -1.97111 63.2066 -1.97099 63.205 -1.97089C63.2041 -1.97084 63.2031 -1.97077 63.2027 -1.97075C63.2017 -1.97069 63.2009 -1.97063 63.3266 0.0254068C63.4524 2.02145 63.4517 2.02149 63.4511 2.02153C63.451 2.02154 63.4504 2.02157 63.4502 2.02159C63.4498 2.02161 63.4496 2.02162 63.4498 2.02161C63.4502 2.02159 63.4518 2.02149 63.4546 2.02133C63.4602 2.02102 63.4707 2.02044 63.4859 2.01968C63.5163 2.01816 63.5657 2.01589 63.6333 2.01342C63.7684 2.0085 63.9759 2.0028 64.2489 2.00077C64.7952 1.9967 65.6027 2.00731 66.6169 2.0678C68.648 2.18894 71.4935 2.50927 74.7241 3.30529C81.1937 4.8994 89.1026 8.37222 95.1838 15.8705L98.2905 13.3509Z" fill="#D2E3FF" mask="url(#path-8-inside-1)"/>
<path d="M20.4861 61.7317C20.4861 57.4986 25.1284 54.2682 29.8578 55.525V67.9384C25.128 69.1953 20.4861 65.9637 20.4861 61.7317Z" fill="#FDFEFF" stroke="#D2E3FF" stroke-width="2"/>
<path d="M97.3865 67.9384V55.525C102.116 54.2682 106.758 57.4986 106.758 61.7317C106.758 65.9637 102.116 69.1953 97.3865 67.9384Z" fill="#FDFEFF" stroke="#D2E3FF" stroke-width="2"/>
<path d="M31.5057 53.7072C31.158 54.0528 30.8106 54.1579 30.5051 54.1478L31.5057 53.7022C31.5057 47.8231 36.7234 43.3314 42.5516 44.1728L42.5517 44.1729C52.8299 45.6564 67.9384 45.094 81.1304 33.8176C81.9726 33.0977 83.2472 33.3272 83.7873 34.2999L84.6615 33.8144L83.7873 34.2999C85.4692 37.3286 88.8826 41.4236 95.1467 42.0281C95.4899 42.0613 95.7371 42.3414 95.7371 42.6634C95.7371 67.7248 95.7515 68.549 95.7086 69.3702C95.7037 69.4635 95.6981 69.5568 95.6917 69.6855C95.275 77.9091 91.7589 85.4593 86.0371 91.042C65.9965 110.582 32.5394 96.7284 31.5332 69.3119L31.5331 69.3097C31.5098 68.712 31.5026 64.8215 31.5016 61.0425C31.5011 59.1625 31.5021 57.3227 31.5033 55.9553C31.5039 55.2717 31.5045 54.7061 31.5049 54.3128L31.5055 53.8588L31.5057 53.7414L31.5057 53.7123L31.5057 53.7072ZM30.5148 53.2568C30.7711 46.9845 36.4158 42.2766 42.6945 43.1831L30.5148 53.2568Z" fill="#FDFEFF" stroke="#D2E3FF" stroke-width="2"/>
</g>
</svg>
