<svg width="71" height="70" viewBox="0 0 71 70" fill="none" xmlns="http://www.w3.org/2000/svg">
<path d="M68.2473 23.342L46.6581 1.75256C44.3213 -0.584188 40.519 -0.584188 38.1823 1.75256L4.48988 35.4451C3.32157 36.6135 2.73735 38.1482 2.73735 39.683C2.73735 41.2177 3.32157 42.7524 4.48988 43.9209L9.90675 49.3377L3.95885 55.2856C3.69182 55.5527 3.55838 55.9025 3.55838 56.2524C3.55838 56.6023 3.69182 56.9522 3.95885 57.2192C4.49275 57.7531 5.35849 57.7532 5.8924 57.2192L11.8403 51.2713L14.3176 53.7487L0.400465 67.666C0.133443 67.9329 0 68.2829 0 68.6328C0 68.9827 0.133443 69.3327 0.400465 69.5996C0.934372 70.1335 1.80011 70.1335 2.33415 69.5996L16.2514 55.6823L26.0792 65.5101C28.416 67.8468 32.2182 67.8468 34.555 65.5101L68.2473 31.8176C69.3793 30.6858 70.0027 29.1806 70.0027 27.5799C70.0027 25.979 69.3793 24.4739 68.2473 23.342ZM29.3236 64.3729C28.844 64.2202 28.3924 63.9564 28.0126 63.5766L6.42343 41.9873C5.57151 41.1353 5.29368 39.9257 5.58422 38.8377H29.3236V64.3729ZM24.3815 36.1033L28.4357 32.049C28.9696 31.5151 28.9698 30.6493 28.4357 30.1154C27.9017 29.5815 27.0361 29.5814 26.5022 30.1154L20.5142 36.1033H16.5308L28.8914 23.7426C29.4252 23.2087 29.4253 22.3429 28.8914 21.8089C28.3575 21.275 27.4918 21.275 26.9578 21.8089L12.6637 36.1033H7.69893L38.8404 4.96161V32.8444C38.8404 34.6414 37.3786 36.1033 35.5816 36.1033H24.3815ZM66.3139 29.8842L32.6214 63.5766C32.4476 63.7504 32.2579 63.8982 32.0582 64.0245V38.8377H35.5818C38.8864 38.8377 41.5751 36.1492 41.5751 32.8444V29.3209H57.2469L49.3351 37.2329C49.0682 37.4998 48.9346 37.8498 48.9346 38.1997C48.9346 38.5497 49.0681 38.8994 49.3351 39.1664C49.869 39.7003 50.7348 39.7003 51.2688 39.1664L61.1132 29.322C61.1135 29.3217 61.1138 29.3213 61.114 29.3211H66.7646C66.6367 29.5225 66.4867 29.7115 66.3139 29.8842ZM41.5749 26.5864V2.84704C42.663 2.5565 43.8726 2.83432 44.7245 3.68625L66.3138 25.2755C66.6873 25.6489 66.9582 26.0972 67.114 26.5864H41.5749Z" fill="#94BCFF"/>
</svg>
