<svg width="66" height="70" viewBox="0 0 66 70" fill="none" xmlns="http://www.w3.org/2000/svg">
<path d="M15.9481 58.7836H13.8901V57.6323L15.2587 56.1252C16.0389 55.2658 16.4686 54.1533 16.4686 52.9927V49.2617C16.4686 46.5254 14.2424 44.2993 11.5063 44.2993H9.32998C6.59368 44.2993 4.36762 46.5255 4.36762 49.2617V52.9926C4.36762 54.1533 4.79733 55.2658 5.57759 56.1251L6.94615 57.6322V58.7833H4.88798C2.1927 58.7833 0 60.9762 0 63.6713V68.9514C0 69.5307 0.469493 70.0002 1.04877 70.0002H19.7876C20.3668 70.0002 20.8364 69.5308 20.8364 68.9514V63.6716C20.8361 60.9763 18.6434 58.7836 15.9481 58.7836ZM18.7386 67.9028H2.09727V63.6716C2.09727 62.1328 3.34907 60.8811 4.8877 60.8811H7.99464C8.57378 60.8811 9.04342 60.4118 9.04342 59.8324V57.1903C9.04342 56.8364 8.86828 56.5235 8.5999 56.3336L7.13031 54.7151C6.70128 54.2426 6.46503 53.6308 6.46503 52.9926V49.2617C6.46503 47.682 7.75019 46.3967 9.32998 46.3967H11.5061C13.0858 46.3967 14.3711 47.6819 14.3711 49.2617V52.9926C14.3711 53.6308 14.1348 54.2426 13.7058 54.7151L12.2363 56.3337C11.968 56.5236 11.7928 56.8366 11.7928 57.1904V59.8325C11.7928 60.4118 12.2623 60.8813 12.8416 60.8813H15.9484C17.4872 60.8813 18.7388 62.1331 18.7388 63.6717V67.9028H18.7386Z" fill="#94BCFF"/>
<path d="M60.5961 14.4844H58.538V13.333L59.9066 11.8261C60.6869 10.9666 61.1166 9.85416 61.1166 8.69355V4.96249C61.1164 2.22633 58.8902 0 56.1541 0H53.9779C51.2416 0 49.0156 2.22633 49.0156 4.96249V8.69341C49.0156 9.85402 49.4453 10.9665 50.2255 11.8259L51.5941 13.3328V14.4843H49.5359C46.8406 14.4843 44.6479 16.6771 44.6479 19.3723V24.6521C44.6479 25.2314 45.1176 25.7008 45.6967 25.7008H64.4356C65.0147 25.7008 65.4843 25.2315 65.4843 24.6521V19.3724C65.4841 16.6773 63.2914 14.4844 60.5961 14.4844ZM46.7454 23.6034V19.3724C46.7454 17.8336 47.9972 16.582 49.5358 16.582H52.6426C53.2217 16.582 53.6914 16.1126 53.6914 15.5332V12.8908C53.6914 12.537 53.5161 12.224 53.2478 12.0341L51.7784 10.4157C51.3492 9.94302 51.113 9.33134 51.113 8.69314V4.96249C51.113 3.3827 52.3981 2.09741 53.9779 2.09741H56.1541C57.7337 2.09741 59.019 3.38256 59.019 4.96249V8.69341C59.019 9.33162 58.7826 9.94343 58.3538 10.4159L56.8843 12.0344C56.6159 12.2243 56.4408 12.5373 56.4408 12.8911V15.5333C56.4408 16.1126 56.9103 16.5821 57.4895 16.5821H60.5964C62.1351 16.5821 63.3868 17.8339 63.3868 19.3725V23.6036H46.7454V23.6034Z" fill="#94BCFF"/>
<path d="M44.4007 12.4678L39.7824 7.84959C39.3728 7.44011 38.7088 7.44011 38.2993 7.84959C37.8897 8.25933 37.8897 8.92324 38.2993 9.33285L41.1273 12.1609H10.436C9.85684 12.1609 9.38721 12.6302 9.38721 13.2097V16.4115C9.38721 16.9908 9.8567 17.4602 10.436 17.4602C11.0153 17.4602 11.4847 16.9909 11.4847 16.4115V14.2583H41.1272L38.2993 17.0862C37.8897 17.4959 37.8897 18.1598 38.2993 18.5694C38.504 18.7741 38.7725 18.8765 39.0409 18.8765C39.3093 18.8765 39.5776 18.7741 39.7824 18.5694L44.4007 13.9514C44.5974 13.7546 44.7079 13.488 44.7079 13.2097C44.7079 12.9313 44.5974 12.6648 44.4007 12.4678Z" fill="#94BCFF"/>
<path d="M10.436 20.0771C9.85684 20.0771 9.38721 20.5465 9.38721 21.1259V39.4296C9.38721 40.0089 9.8567 40.4784 10.436 40.4784C11.0153 40.4784 11.4847 40.009 11.4847 39.4296V21.1258C11.4847 20.5465 11.0153 20.0771 10.436 20.0771Z" fill="#94BCFF"/>
<path d="M55.0189 27.6855C54.4398 27.6855 53.9702 28.1549 53.9702 28.7343V56.7442H23.7763L26.6044 53.9162C27.014 53.5064 27.014 52.8425 26.6044 52.4329C26.1948 52.0234 25.5307 52.0234 25.1212 52.4329L20.503 57.0511C20.0934 57.4609 20.0934 58.1248 20.503 58.5344L25.1212 63.1526C25.3259 63.3573 25.5944 63.4597 25.8628 63.4597C26.1312 63.4597 26.3996 63.3573 26.6044 63.1526C27.014 62.7429 27.014 62.079 26.6044 61.6694L23.7763 58.8415H55.0189C55.5981 58.8415 56.0677 58.3721 56.0677 57.7927V28.7343C56.0677 28.155 55.5981 27.6855 55.0189 27.6855Z" fill="#94BCFF"/>
<path d="M39.6965 30.154C39.5942 27.4615 37.405 25.2723 34.7124 25.1699C33.2868 25.116 31.9378 25.6295 30.9127 26.6166C29.8871 27.6041 29.3223 28.9318 29.3223 30.3551C29.3223 30.9343 29.7919 31.4038 30.371 31.4038C30.9502 31.4038 31.4198 30.9345 31.4198 30.3551C31.4198 29.5071 31.7564 28.7159 32.3674 28.1275C32.9781 27.5395 33.7812 27.2331 34.6327 27.2658C36.2359 27.3269 37.5395 28.6304 37.6003 30.2335C37.6554 31.6832 36.719 32.9601 35.3235 33.339C34.2277 33.6365 33.4623 34.6393 33.4623 35.7773V38.4155C33.4623 38.9947 33.9319 39.4642 34.511 39.4642C35.0902 39.4642 35.5598 38.9949 35.5598 38.4155V35.7773C35.5598 35.5835 35.6886 35.4133 35.8732 35.3632C38.2167 34.7272 39.7888 32.585 39.6965 30.154Z" fill="#94BCFF"/>
<path d="M34.5112 40.0073C33.3007 40.0073 32.3159 40.992 32.3159 42.2026C32.3159 43.413 33.3006 44.3979 34.5112 44.3979C35.7219 44.3979 36.7065 43.4131 36.7065 42.2026C36.7065 40.9922 35.7217 40.0073 34.5112 40.0073ZM34.5114 42.3005C34.4573 42.3005 34.4136 42.2568 34.4136 42.2028C34.4136 42.1488 34.4573 42.1049 34.5114 42.1049C34.5654 42.1049 34.6091 42.1488 34.6091 42.2028C34.6091 42.2568 34.5654 42.3005 34.5114 42.3005Z" fill="#94BCFF"/>
</svg>
