<svg width="150" height="150" viewBox="0 0 150 150" fill="none" xmlns="http://www.w3.org/2000/svg">
<circle cx="75" cy="75" r="75" fill="#EFF4FF"/>
<path d="M75 40C55.6925 40 40 55.6925 40 75C40 94.3075 55.6925 110 75 110C94.3075 110 110 94.3075 110 75C110 55.6925 94.3075 40 75 40ZM75 106.467C57.6643 106.467 43.5329 92.3357 43.5329 75C43.5329 57.6643 57.6643 43.5329 75 43.5329C92.3357 43.5329 106.467 57.6643 106.467 75C106.467 92.3357 92.3357 106.467 75 106.467Z" fill="#0063FF" fill-opacity="0.8"/>
<path d="M77.4647 74.8356L87.7347 64.5657C88.3919 63.9084 88.3919 62.7581 87.7347 62.1009C87.0774 61.4436 85.9271 61.4436 85.2699 62.1009L74.9999 72.3708L64.73 62.1009C64.0727 61.4436 62.9225 61.4436 62.2652 62.1009C61.6079 62.7581 61.6079 63.9084 62.2652 64.5657L72.5351 74.8356L62.2652 85.0234C61.6079 85.6807 61.6079 86.8309 62.2652 87.4882C62.5938 87.8168 63.0868 87.9812 63.4976 87.9812C63.9084 87.9812 64.4013 87.8168 64.73 87.4882L74.9999 77.2182L85.2699 87.4882C85.5985 87.8168 86.0915 87.9812 86.5023 87.9812C86.9131 87.9812 87.406 87.8168 87.7347 87.4882C88.3919 86.8309 88.3919 85.6807 87.7347 85.0234L77.4647 74.8356Z" fill="#0063FF" fill-opacity="0.8"/>
</svg>
