<svg width="150" height="150" viewBox="0 0 150 150" fill="none" xmlns="http://www.w3.org/2000/svg">
<circle cx="75" cy="75" r="75" fill="#EFF4FF"/>
<path d="M89.3692 83.1782C89.7849 83.1782 90.1218 82.8413 90.1218 82.4256C90.1218 82.01 89.7849 81.6731 89.3692 81.6731C88.9536 81.6731 88.6167 82.01 88.6167 82.4256C88.6167 82.8413 88.9536 83.1782 89.3692 83.1782Z" fill="#0063FF"/>
<path d="M89.3692 90.3811C89.7849 90.3811 90.1218 90.0441 90.1218 89.6285C90.1218 89.2129 89.7849 88.876 89.3692 88.876C88.9536 88.876 88.6167 89.2129 88.6167 89.6285C88.6167 90.0441 88.9536 90.3811 89.3692 90.3811Z" fill="#0063FF"/>
<path d="M85.8214 86.8335C86.237 86.8335 86.5739 86.4965 86.5739 86.0809C86.5739 85.6653 86.237 85.3284 85.8214 85.3284C85.4058 85.3284 85.0688 85.6653 85.0688 86.0809C85.0688 86.4965 85.4058 86.8335 85.8214 86.8335Z" fill="#0063FF"/>
<path d="M92.9169 86.8335C93.3325 86.8335 93.6694 86.4965 93.6694 86.0809C93.6694 85.6653 93.3325 85.3284 92.9169 85.3284C92.5012 85.3284 92.1643 85.6653 92.1643 86.0809C92.1643 86.4965 92.5012 86.8335 92.9169 86.8335Z" fill="#0063FF"/>
<path d="M89.3691 87.2633C90.0222 87.2633 90.5517 86.7339 90.5517 86.0808C90.5517 85.4276 90.0222 84.8982 89.3691 84.8982C88.716 84.8982 88.1865 85.4276 88.1865 86.0808C88.1865 86.7339 88.716 87.2633 89.3691 87.2633Z" fill="#0063FF"/>
<path d="M119.021 110.807L115.903 102.959C115.58 102.207 115.043 101.669 114.398 101.454C113.86 101.239 113.323 101.239 112.785 101.239C92.359 55.2265 57.957 34.3703 57.6345 34.1553C57.0969 33.8328 56.4519 34.0478 56.1294 34.4778C55.8069 35.0153 56.0219 35.6604 56.4519 35.9829C56.5594 35.9829 57.527 36.6279 59.1396 37.8105C56.1294 39.2081 48.4964 43.4008 45.5938 51.3563C43.5512 57.0541 44.5187 63.5045 48.3889 70.3849C60.5371 91.5636 49.1415 101.992 48.604 102.529L48.1739 100.272C48.0664 99.7341 47.5289 99.3041 46.8839 99.4116C46.3463 99.5191 45.9163 100.057 46.0238 100.702L46.7763 104.572L44.3037 107.367C43.4437 108.442 42.9061 109.732 43.0136 111.022C43.1211 112.42 43.6587 113.602 44.7337 114.57C45.7013 115.43 46.8839 115.86 48.1739 115.86C49.5715 115.86 50.9691 115.322 52.0442 114.14C52.4742 113.71 52.3667 113.065 51.9366 112.635C51.5066 112.205 50.8616 112.312 50.4316 112.742C49.3565 113.925 47.4214 114.032 46.2388 112.957C45.5938 112.42 45.2713 111.667 45.2713 110.915C45.2713 110.162 45.4863 109.41 46.0238 108.765L48.3889 106.077L52.7967 105.217C53.3342 105.109 53.7643 104.572 53.6567 103.927C53.5492 103.389 53.0117 102.959 52.3667 103.067L50.9691 103.497C52.0442 102.314 54.1943 99.6266 55.3768 95.3263C56.8819 90.0585 57.312 81.243 50.4316 69.4173C46.7763 63.0745 45.9163 57.2691 47.7439 52.2163C50.8616 43.4008 61.0747 39.4231 61.1822 39.4231C61.1822 39.4231 61.1822 39.4231 61.2897 39.4231C68.9226 45.0134 84.511 58.0217 98.3793 79.3079C97.4118 78.8779 96.4442 78.6629 95.3692 78.6629C91.2839 78.6629 87.8437 81.9956 87.8437 86.1883C87.8437 90.381 91.1764 93.7137 95.3692 93.7137C99.3469 93.7137 102.68 90.5961 102.787 86.6183C105.582 91.4561 108.27 96.7239 110.743 102.207C109.668 102.959 109.13 104.464 109.667 105.647L113 113.495C113.323 114.247 113.86 114.785 114.505 115C114.828 115.107 115.258 115.215 115.58 115.215C115.903 115.215 116.333 115.107 116.655 115L117.515 114.57C119.021 113.925 119.666 112.312 119.021 110.807ZM95.3692 91.4561C92.4665 91.4561 89.9939 89.091 89.9939 86.0808C89.9939 83.1781 92.359 80.7055 95.3692 80.7055C98.2718 80.7055 100.744 83.0706 100.744 86.0808C100.744 88.9835 98.2718 91.4561 95.3692 91.4561ZM116.87 112.527L116.01 112.957C115.795 113.065 115.688 113.065 115.473 112.957C115.258 112.85 115.15 112.742 115.043 112.527L111.71 104.679C111.603 104.357 111.71 103.927 112.14 103.712L113 103.282C113.108 103.282 113.215 103.174 113.323 103.174C113.43 103.174 113.538 103.174 113.645 103.174C113.86 103.282 113.968 103.389 114.075 103.604L117.408 111.452C117.408 111.99 117.193 112.42 116.87 112.527Z" fill="#0063FF"/>
</svg>
