<svg width="162" height="180" viewBox="0 0 162 180" fill="none" xmlns="http://www.w3.org/2000/svg">
<g opacity="0.5">
<path d="M53.7563 106.521H107.615V126.794L80.6857 150.731L53.7563 126.794V106.521Z" fill="#FDFEFF" stroke="#D2E3FF" stroke-width="2"/>
<path d="M151.572 138.379L151.801 137.405L151.572 138.379C156.727 139.591 160.371 144.192 160.37 149.489V173.794C160.37 176.669 158.039 179 155.163 179H6.20645C3.33099 179 1 176.669 1 173.794V149.489C1 144.192 4.64354 139.592 9.79923 138.379L48.1999 129.344L48.2001 129.343C49.1995 129.108 50.1029 128.668 50.8784 128.081L80.1485 146.707L80.6627 147.035L81.1892 146.728L111.816 128.862C112.235 129.061 112.685 129.229 113.171 129.343C113.171 129.343 113.171 129.343 113.171 129.343L151.572 138.379Z" fill="#FDFEFF" stroke="#D2E3FF" stroke-width="2"/>
<path d="M22.1148 160.604L22.1148 160.604C25.1795 163.357 26.9303 167.283 26.9306 171.403C26.9306 171.403 26.9306 171.403 26.9306 171.403V179H6.20767C3.33221 179 1.00122 176.669 1.00122 173.794V149.489C1.00122 147.223 1.66851 145.086 2.83571 143.285L22.1148 160.604Z" fill="#FDFEFF" stroke="#D2E3FF" stroke-width="2"/>
<path d="M139.257 160.603L139.257 160.603L158.536 143.285C159.704 145.085 160.371 147.223 160.371 149.488V173.793C160.371 176.669 158.04 179 155.164 179H134.441V171.402C134.441 167.282 136.192 163.356 139.257 160.603Z" fill="#FDFEFF" stroke="#D2E3FF" stroke-width="2"/>
<path d="M85.5715 153.069L87.3721 178.999H73.9993L75.8 153.069H85.5715Z" fill="#FDFEFF" stroke="#D2E3FF" stroke-width="2"/>
<path d="M73.9275 151.703V146.863H87.4436V151.703C87.4436 153.067 86.3381 154.173 84.9741 154.173H76.397C75.033 154.173 73.9275 153.067 73.9275 151.703Z" fill="#FDFEFF" stroke="#D2E3FF" stroke-width="2"/>
<path d="M57.6838 156.147L44.5872 127.335L48.4947 121.474L48.495 121.474C49.2057 120.407 50.6979 120.219 51.6516 121.077C51.6516 121.077 51.6516 121.077 51.6517 121.077L78.9604 145.655C78.9095 145.683 78.8571 145.713 78.8033 145.743C77.8921 146.252 76.5783 147.015 74.9574 148.031C71.7163 150.062 67.2434 153.11 62.3029 157.184C60.7772 158.442 58.49 157.921 57.6838 156.147Z" fill="#FDFEFF" stroke="#D2E3FF" stroke-width="2"/>
<path d="M82.5681 145.743C82.5143 145.713 82.4619 145.683 82.4109 145.655L109.72 121.077C110.673 120.219 112.165 120.407 112.877 121.474L112.877 121.474L116.784 127.335L103.688 156.147C102.881 157.921 100.594 158.442 99.0684 157.184C94.128 153.11 89.6551 150.062 86.4139 148.031C84.793 147.015 83.4793 146.252 82.5681 145.743Z" fill="#FDFEFF" stroke="#D2E3FF" stroke-width="2"/>
<path d="M41.5067 37.6367L40.5374 37.8827L40.8697 39.1923L42.0251 38.4919C47.0779 35.4286 51.5464 34.0798 55.7051 33.7407C59.8735 33.4008 63.789 34.0701 67.7537 35.125C69.664 35.6333 71.5975 36.2379 73.577 36.8569C76.3935 37.7376 79.303 38.6474 82.3711 39.3502C80.1461 39.3272 77.9214 39.1375 75.6433 38.9411L75.5555 38.9335C73.1661 38.7274 70.7183 38.5162 68.2284 38.504C63.1581 38.4791 57.8758 39.2778 52.2479 42.5942C46.0191 46.2647 43.6081 52.8309 42.7243 58.2957C42.2798 61.0441 42.2122 63.5645 42.2548 65.3961C42.2762 66.3132 42.3253 67.061 42.3694 67.5824C42.3799 67.7059 42.39 67.8167 42.3995 67.9141L38.1558 72.1578C38.151 72.0752 38.1459 71.9908 38.1405 71.9046C38.0421 70.3288 37.845 68.1599 37.4501 65.79C36.6907 61.2336 35.1621 55.6826 31.9828 52.3084C31.9611 52.1229 31.9327 51.8574 31.9031 51.5191C31.8394 50.7921 31.7704 49.73 31.7511 48.4051C31.7125 45.7536 31.8732 42.0595 32.6699 37.8977C33.9894 31.0054 37.0438 22.868 43.7967 16.0338C41.3335 20.9847 40.3667 25.6446 40.0734 29.3759C39.8738 31.9144 39.9857 34.0237 40.1491 35.5053C40.2308 36.2463 40.3255 36.8313 40.4009 37.2355C40.4387 37.4376 40.4716 37.5946 40.4957 37.7035C40.5077 37.7579 40.5175 37.8003 40.5247 37.8303L40.5333 37.866L40.5359 37.8767L40.5368 37.8803L40.5372 37.8816C40.5373 37.8822 40.5374 37.8827 41.5067 37.6367Z" fill="#FDFEFF" stroke="#D2E3FF" stroke-width="2"/>
<path d="M33.2288 74.7383C33.2288 70.5057 37.8705 67.2757 42.5993 68.5323V80.9443C37.8701 82.201 33.2288 78.9697 33.2288 74.7383Z" fill="#FDFEFF" stroke="#D2E3FF" stroke-width="2"/>
<path d="M118.647 80.9433V68.5313C123.376 67.2747 128.018 70.5048 128.018 74.7373C128.018 78.9687 123.377 82.2001 118.647 80.9433Z" fill="#FDFEFF" stroke="#D2E3FF" stroke-width="2"/>
<path d="M44.0462 93.5941L44.0462 93.594L41.3895 35.1455H41.4226H41.4836H41.5462H41.6104H41.6761H41.7435H41.8123H41.8828H41.9547H42.0282H42.1033H42.1798H42.2579H42.3375H42.4186H42.5011H42.5852H42.6707H42.7577H42.8462H42.9362H43.0275H43.1204H43.2146H43.3103H43.4074H43.506H43.6059H43.7072H43.8099H43.914H44.0195H44.1264H44.2346H44.3442H44.4551H44.5674H44.681H44.7959H44.9122H45.0297H45.1486H45.2687H45.3902H45.5129H45.637H45.7622H45.8888H46.0166H46.1457H46.276H46.4075H46.5402H46.6742H46.8094H46.9458H47.0834H47.2221H47.3621H47.5032H47.6455H47.789H47.9336H48.0794H48.2263H48.3743H48.5235H48.6738H48.8252H48.9777H49.1313H49.286H49.4417H49.5986H49.7565H49.9154H50.0755H50.2365H50.3986H50.5618H50.7259H50.8911H51.0573H51.2245H51.3927H51.5619H51.732H51.9032H52.0753H52.2483H52.4223H52.5973H52.7732H52.95H53.1277H53.3064H53.486H53.6664H53.8478H54.0301H54.2132H54.3972H54.5821H54.7678H54.9544H55.1418H55.3301H55.5192H55.7091H55.8998H56.0914H56.2837H56.4768H56.6708H56.8655H57.0609H57.4542H57.6519H57.8504H58.2496H58.6516H59.0565H59.8745H60.0807H60.2875H60.495H60.7032H61.542H61.965H62.3905H62.604H62.8182H63.2482H64.1147H64.3326H64.5511H64.77H64.9895H65.4299H65.8722H66.3163H66.7622H67.2098H67.4343H67.6592H67.8844H68.1101H68.3362H68.5626H68.7894H69.0166H69.2441H69.472H69.7003H69.9289H70.1578H70.387H70.6166H70.8464H71.0766H71.3071H71.5378H71.7689H72.0002H72.2317H72.4636H72.6957H72.928H73.1606H73.3934H73.6264H73.8596H74.0931H74.3267H74.5606H74.7946H75.0288H75.2632H75.4978H75.7325H75.9674H76.2024H76.4375H76.6728H76.9082H77.1437H77.3793H77.6151H77.8509H78.0868H78.3228H78.5588H78.7949H79.0311H79.2673H79.5036H79.7399H79.9763H80.2126H80.449H80.6854H119.981L117.325 93.594C117.086 98.8537 114.507 103.73 110.295 106.89L97.464 116.513C94.414 118.801 90.7046 120.037 86.8921 120.037H74.4789C70.6665 120.037 66.9571 118.8 63.907 116.513C63.907 116.513 63.9069 116.513 63.9069 116.513L51.0757 106.89L50.4757 107.69L51.0757 106.89C46.864 103.731 44.2851 98.8533 44.0462 93.5941Z" fill="#FDFEFF" stroke="#D2E3FF" stroke-width="2"/>
<path d="M129.155 52.1573C129.153 52.2335 129.151 52.3022 129.148 52.3632C125.249 56.7276 123.593 60.5197 122.931 63.292C122.599 64.685 122.52 65.8102 122.53 66.6084L119.979 66.325C119.653 65.6921 119.469 64.9595 119.42 63.9012C119.279 60.8722 118.587 53.9752 116.231 47.4699C113.97 41.2261 110.052 35.0224 103.302 33.3227L100.603 14.2517C108.319 11.5646 113.814 12.5225 117.788 15.2918C121.955 18.1958 124.652 23.2282 126.37 28.8148C128.081 34.3805 128.775 40.3528 129.039 44.9551C129.17 47.2516 129.194 49.1968 129.184 50.5658C129.18 51.2502 129.167 51.7901 129.155 52.1573Z" fill="#FDFEFF" stroke="#D2E3FF" stroke-width="2"/>
<path d="M41.1317 66.4202L37.4195 67.0389C37.4097 66.9069 37.3982 66.7649 37.3846 66.6138C37.2965 65.635 37.1208 64.2651 36.7697 62.6875C36.0859 59.6151 34.7228 55.692 31.9877 52.3493C31.9876 52.3489 31.9876 52.3485 31.9875 52.3481C31.9653 52.1616 31.9349 51.8821 31.9031 51.5187C31.8394 50.7917 31.7704 49.7296 31.7511 48.4047C31.7125 45.7533 31.8732 42.0592 32.6699 37.8973C34.2634 29.5733 38.3876 19.4334 48.5012 11.9662L49.6337 11.1301L48.4713 10.336L45.3035 8.17194C49.8078 6.11979 55.9055 4.43799 62.0951 3.21828C69.0003 1.85755 75.9223 1.0906 80.7023 1.00938L80.6854 0.0095258L80.7024 1.00938C104.419 0.606135 113.246 13.2451 113.827 18.7343C114.431 24.4508 112.993 29.5087 108.413 33.1838C103.765 36.9133 95.7251 39.3522 82.8186 39.3522C80.4441 39.3522 78.0742 39.1503 75.6433 38.9407L75.5553 38.9331C73.166 38.727 70.7182 38.5158 68.2284 38.5036C63.1581 38.4787 57.8758 39.2774 52.2479 42.5939C46.0587 46.2409 43.309 52.504 42.0935 57.7187C41.4832 60.3372 41.25 62.7293 41.1688 64.4663C41.1313 65.2688 41.1262 65.934 41.1317 66.4202Z" fill="#FDFEFF" stroke="#D2E3FF" stroke-width="2"/>
<path d="M99.3054 174.792H121.028C122.19 174.792 123.132 175.734 123.132 176.895V178.999H97.2021V176.895C97.2021 175.734 98.1438 174.792 99.3054 174.792Z" fill="#FDFEFF" stroke="#D2E3FF" stroke-width="2"/>
</g>
</svg>
