<svg width="160" height="76" viewBox="0 0 160 76" fill="none" xmlns="http://www.w3.org/2000/svg">
<path d="M11.7891 39.0273H5.03906V46H1.52344V28.9375H12.6328V31.7852H5.03906V36.1914H11.7891V39.0273ZM19.8502 46H16.3345V28.9375H19.8502V46ZM38.4347 46H34.9191L28.0753 34.7734V46H24.5597V28.9375H28.0753L34.9308 40.1875V28.9375H38.4347V46ZM56.3395 40.3164C56.2067 42.1523 55.527 43.5977 54.3005 44.6523C53.0817 45.707 51.4723 46.2344 49.4723 46.2344C47.2848 46.2344 45.5622 45.5 44.3044 44.0312C43.0544 42.5547 42.4294 40.5312 42.4294 37.9609V36.918C42.4294 35.2773 42.7184 33.832 43.2966 32.582C43.8747 31.332 44.6989 30.375 45.7692 29.7109C46.8473 29.0391 48.0973 28.7031 49.5192 28.7031C51.488 28.7031 53.0739 29.2305 54.277 30.2852C55.4802 31.3398 56.1755 32.8203 56.363 34.7266H52.8473C52.7614 33.625 52.4528 32.8281 51.9216 32.3359C51.3981 31.8359 50.5973 31.5859 49.5192 31.5859C48.3473 31.5859 47.4684 32.0078 46.8825 32.8516C46.3044 33.6875 46.0075 34.9883 45.9919 36.7539V38.043C45.9919 39.8867 46.2692 41.2344 46.8239 42.0859C47.3864 42.9375 48.2692 43.3633 49.4723 43.3633C50.5583 43.3633 51.3669 43.1172 51.8981 42.625C52.4372 42.125 52.7458 41.3555 52.8239 40.3164H56.3395ZM96.2128 46H92.6972L85.8534 34.7734V46H82.3378V28.9375H85.8534L92.7089 40.1875V28.9375H96.2128V46ZM109.571 41.5234C109.571 40.8594 109.336 40.3516 108.868 40C108.399 39.6406 107.555 39.2656 106.336 38.875C105.118 38.4766 104.153 38.0859 103.442 37.7031C101.504 36.6562 100.536 35.2461 100.536 33.4727C100.536 32.5508 100.793 31.7305 101.309 31.0117C101.833 30.2852 102.579 29.7188 103.547 29.3125C104.524 28.9062 105.618 28.7031 106.829 28.7031C108.047 28.7031 109.133 28.9258 110.086 29.3711C111.04 29.8086 111.778 30.4297 112.301 31.2344C112.833 32.0391 113.098 32.9531 113.098 33.9766H109.583C109.583 33.1953 109.336 32.5898 108.844 32.1602C108.352 31.7227 107.661 31.5039 106.77 31.5039C105.911 31.5039 105.243 31.6875 104.766 32.0547C104.29 32.4141 104.051 32.8906 104.051 33.4844C104.051 34.0391 104.329 34.5039 104.883 34.8789C105.446 35.2539 106.27 35.6055 107.356 35.9336C109.356 36.5352 110.813 37.2812 111.727 38.1719C112.641 39.0625 113.098 40.1719 113.098 41.5C113.098 42.9766 112.54 44.1367 111.422 44.9805C110.305 45.8164 108.801 46.2344 106.911 46.2344C105.598 46.2344 104.403 45.9961 103.325 45.5195C102.247 45.0352 101.422 44.375 100.852 43.5391C100.29 42.7031 100.008 41.7344 100.008 40.6328H103.536C103.536 42.5156 104.661 43.457 106.911 43.457C107.747 43.457 108.399 43.2891 108.868 42.9531C109.336 42.6094 109.571 42.1328 109.571 41.5234ZM129.843 28.9375V40.1758C129.843 42.043 129.257 43.5195 128.085 44.6055C126.921 45.6914 125.327 46.2344 123.304 46.2344C121.312 46.2344 119.73 45.707 118.558 44.6523C117.386 43.5977 116.788 42.1484 116.765 40.3047V28.9375H120.28V40.1992C120.28 41.3164 120.546 42.1328 121.077 42.6484C121.616 43.1562 122.358 43.4102 123.304 43.4102C125.28 43.4102 126.284 42.3711 126.315 40.293V28.9375H129.843ZM137.681 43.1758H145.146V46H134.166V28.9375H137.681V43.1758ZM159.043 31.7852H153.817V46H150.301V31.7852H145.145V28.9375H159.043V31.7852Z" fill="#0063FF"/>
<path d="M69.0363 39.9067C68.4637 39.9067 68 40.384 68 40.9567C68 41.5158 68.45 42.0067 69.0363 42.0067C69.6227 42.0067 70.0863 41.5159 70.0863 40.9567C70.0863 40.384 69.6091 39.9067 69.0363 39.9067Z" fill="#0063FF"/>
<path d="M69.1622 32C67.6805 32 67 32.9805 67 33.6424C67 34.1204 67.3622 34.341 67.6585 34.341C68.2512 34.341 68.0097 33.3973 69.1292 33.3973C69.678 33.3973 70.1171 33.6669 70.1171 34.2307C70.1171 34.8926 69.5024 35.2726 69.1402 35.6158C68.822 35.9222 68.4049 36.4247 68.4049 37.4788C68.4049 38.1161 68.5585 38.3 69.0085 38.3C69.5463 38.3 69.6561 38.0304 69.6561 37.7975C69.6561 37.1601 69.6671 36.7924 70.2707 36.2654C70.5671 36.008 71.5 35.1745 71.5 34.0224C71.5 32.8702 70.5671 32 69.1622 32Z" fill="#0063FF"/>
<path d="M70 26.5C64.4733 26.5 60 30.9725 60 36.5V45.7188C60 46.1502 60.3498 46.5 60.7812 46.5H70C75.5267 46.5 80 42.0275 80 36.5C80 30.9733 75.5275 26.5 70 26.5ZM70 44.9375H61.5625V36.5C61.5625 31.8368 65.3362 28.0625 70 28.0625C74.6632 28.0625 78.4375 31.8362 78.4375 36.5C78.4375 41.1632 74.6638 44.9375 70 44.9375Z" fill="#0063FF"/>
</svg>
