<svg width="160" height="76" viewBox="0 0 160 76" fill="none" xmlns="http://www.w3.org/2000/svg">
<path d="M11.7891 39.0278H5.03906V46.0005H1.52344V28.938H12.6328V31.7856H5.03906V36.1919H11.7891V39.0278ZM19.8502 46.0005H16.3345V28.938H19.8502V46.0005ZM38.4347 46.0005H34.9191L28.0753 34.7739V46.0005H24.5597V28.938H28.0753L34.9308 40.188V28.938H38.4347V46.0005ZM56.3395 40.3169C56.2067 42.1528 55.527 43.5981 54.3005 44.6528C53.0817 45.7075 51.4723 46.2349 49.4723 46.2349C47.2848 46.2349 45.5622 45.5005 44.3044 44.0317C43.0544 42.5552 42.4294 40.5317 42.4294 37.9614V36.9185C42.4294 35.2778 42.7184 33.8325 43.2966 32.5825C43.8747 31.3325 44.6989 30.3755 45.7692 29.7114C46.8473 29.0396 48.0973 28.7036 49.5192 28.7036C51.488 28.7036 53.0739 29.231 54.277 30.2856C55.4802 31.3403 56.1755 32.8208 56.363 34.7271H52.8473C52.7614 33.6255 52.4528 32.8286 51.9216 32.3364C51.3981 31.8364 50.5973 31.5864 49.5192 31.5864C48.3473 31.5864 47.4684 32.0083 46.8825 32.8521C46.3044 33.688 46.0075 34.9888 45.9919 36.7544V38.0435C45.9919 39.8872 46.2692 41.2349 46.8239 42.0864C47.3864 42.938 48.2692 43.3638 49.4723 43.3638C50.5583 43.3638 51.3669 43.1177 51.8981 42.6255C52.4372 42.1255 52.7458 41.356 52.8239 40.3169H56.3395ZM96.2128 46.0005H92.6972L85.8534 34.7739V46.0005H82.3378V28.938H85.8534L92.7089 40.188V28.938H96.2128V46.0005ZM109.571 41.5239C109.571 40.8599 109.336 40.3521 108.868 40.0005C108.399 39.6411 107.555 39.2661 106.336 38.8755C105.118 38.4771 104.153 38.0864 103.442 37.7036C101.504 36.6567 100.536 35.2466 100.536 33.4731C100.536 32.5513 100.793 31.731 101.309 31.0122C101.833 30.2856 102.579 29.7192 103.547 29.313C104.524 28.9067 105.618 28.7036 106.829 28.7036C108.047 28.7036 109.133 28.9263 110.086 29.3716C111.04 29.8091 111.778 30.4302 112.301 31.2349C112.833 32.0396 113.098 32.9536 113.098 33.9771H109.583C109.583 33.1958 109.336 32.5903 108.844 32.1606C108.352 31.7231 107.661 31.5044 106.77 31.5044C105.911 31.5044 105.243 31.688 104.766 32.0552C104.29 32.4146 104.051 32.8911 104.051 33.4849C104.051 34.0396 104.329 34.5044 104.883 34.8794C105.446 35.2544 106.27 35.606 107.356 35.9341C109.356 36.5356 110.813 37.2817 111.727 38.1724C112.641 39.063 113.098 40.1724 113.098 41.5005C113.098 42.9771 112.54 44.1372 111.422 44.981C110.305 45.8169 108.801 46.2349 106.911 46.2349C105.598 46.2349 104.403 45.9966 103.325 45.52C102.247 45.0356 101.422 44.3755 100.852 43.5396C100.29 42.7036 100.008 41.7349 100.008 40.6333H103.536C103.536 42.5161 104.661 43.4575 106.911 43.4575C107.747 43.4575 108.399 43.2896 108.868 42.9536C109.336 42.6099 109.571 42.1333 109.571 41.5239ZM129.843 28.938V40.1763C129.843 42.0435 129.257 43.52 128.085 44.606C126.921 45.6919 125.327 46.2349 123.304 46.2349C121.312 46.2349 119.73 45.7075 118.558 44.6528C117.386 43.5981 116.788 42.1489 116.765 40.3052V28.938H120.28V40.1997C120.28 41.3169 120.546 42.1333 121.077 42.6489C121.616 43.1567 122.358 43.4106 123.304 43.4106C125.28 43.4106 126.284 42.3716 126.315 40.2935V28.938H129.843ZM137.681 43.1763H145.146V46.0005H134.166V28.938H137.681V43.1763ZM159.043 31.7856H153.817V46.0005H150.301V31.7856H145.145V28.938H159.043V31.7856Z" fill="white"/>
<path d="M69.0363 39.9072C68.4637 39.9072 68 40.3845 68 40.9572C68 41.5163 68.45 42.0072 69.0363 42.0072C69.6227 42.0072 70.0863 41.5163 70.0863 40.9572C70.0863 40.3845 69.6091 39.9072 69.0363 39.9072Z" fill="white"/>
<path d="M69.1622 32.0005C67.6805 32.0005 67 32.981 67 33.6429C67 34.1209 67.3622 34.3415 67.6585 34.3415C68.2512 34.3415 68.0097 33.3978 69.1292 33.3978C69.678 33.3978 70.1171 33.6674 70.1171 34.2312C70.1171 34.8931 69.5024 35.2731 69.1402 35.6163C68.822 35.9227 68.4049 36.4252 68.4049 37.4793C68.4049 38.1166 68.5585 38.3005 69.0085 38.3005C69.5463 38.3005 69.6561 38.0309 69.6561 37.798C69.6561 37.1606 69.6671 36.7929 70.2707 36.2659C70.5671 36.0085 71.5 35.175 71.5 34.0229C71.5 32.8707 70.5671 32.0005 69.1622 32.0005Z" fill="white"/>
<path d="M70 26.5005C64.4733 26.5005 60 30.973 60 36.5005V45.7192C60 46.1507 60.3498 46.5005 60.7812 46.5005H70C75.5267 46.5005 80 42.0279 80 36.5005C80 30.9738 75.5275 26.5005 70 26.5005ZM70 44.938H61.5625V36.5005C61.5625 31.8373 65.3362 28.063 70 28.063C74.6632 28.063 78.4375 31.8367 78.4375 36.5005C78.4375 41.1637 74.6638 44.938 70 44.938Z" fill="white"/>
</svg>
