<svg width="156" height="55" viewBox="0 0 156 55" fill="none" xmlns="http://www.w3.org/2000/svg">
<path d="M101.321 8.54625C101.109 7.3841 100.764 6.2549 100.316 5.2034C99.7906 3.98632 99.1236 2.88066 98.3468 1.9704C97.9623 1.71929 97.5778 1.48388 97.1854 1.27986C97.1069 1.23984 97.0363 1.22493 96.9657 1.20845C96.5655 0.949497 96.0868 0.816096 95.616 0.588531C95.5846 0.580684 95.5689 0.580683 95.5454 0.572836C95.3414 0.45513 95.1295 0.353119 94.9019 0.282495C94.0309 0.0470829 93.1677 0.031389 92.2731 0.031389C92.179 0.031389 92.1084 0.0549279 92.0299 0.0792538C91.6218 0.0313867 91.2059 0 90.7822 0H10.9853C6.93619 0 3.4364 2.37766 1.78851 5.80683C1.60018 5.84607 1.42755 5.94808 1.29415 6.15211C0.15632 7.88631 -0.188951 9.94225 0.0935435 11.9433C0.046461 12.0453 0.0150727 12.1622 0.0150727 12.3042C0.0386139 13.3079 0.164167 14.2424 0.368191 15.1527C0.642839 15.301 0.886098 15.5215 1.06658 15.8354C2.00823 17.4519 3.32654 18.5897 4.84887 19.3893C5.82191 19.9072 6.88126 20.2847 7.97985 20.5664C9.46295 23.2109 12.2879 25 15.5209 25H53.8068C54.0736 24.8274 54.4188 24.796 54.6857 25H95.3178C100.081 25 103.95 21.1243 103.95 16.3682V14.7439C103.95 12.3128 102.937 10.1157 101.321 8.54625ZM99.414 11.8263C99.414 16.5824 95.5375 20.4581 90.7822 20.4581H50.1422C49.8754 20.2541 49.5301 20.2855 49.2633 20.4581H10.9853C9.78468 20.4581 8.63116 20.207 7.5875 19.7597C6.44183 19.2732 5.42955 18.5434 4.60561 17.6332L4.59776 17.6245C3.20099 16.0951 2.3535 14.0541 2.3535 11.8255V10.2012C2.3535 5.43881 6.22211 1.56942 10.9853 1.56942H90.7822C93.3953 1.56942 95.7415 2.73863 97.3188 4.57484C97.8916 5.24263 98.3625 5.9881 98.7156 6.8042C99.1629 7.84707 99.414 8.99275 99.414 10.2012V11.8263Z" fill="#94BCFF"/>
<path d="M153.321 38.5462C153.109 37.3841 152.764 36.2549 152.316 35.2034C151.791 33.9863 151.124 32.8807 150.347 31.9704C149.962 31.7193 149.578 31.4839 149.185 31.2799C149.107 31.2398 149.036 31.2249 148.966 31.2085C148.565 30.9495 148.087 30.8161 147.616 30.5885C147.585 30.5807 147.569 30.5807 147.545 30.5728C147.341 30.4551 147.129 30.3531 146.902 30.2825C146.031 30.0471 145.168 30.0314 144.273 30.0314C144.179 30.0314 144.108 30.0549 144.03 30.0793C143.622 30.0314 143.206 30 142.782 30H62.9853C58.9362 30 55.4364 32.3777 53.7885 35.8068C53.6002 35.8461 53.4275 35.9481 53.2941 36.1521C52.1563 37.8863 51.811 39.9422 52.0935 41.9433C52.0465 42.0453 52.0151 42.1622 52.0151 42.3042C52.0386 43.3079 52.1642 44.2424 52.3682 45.1527C52.6428 45.301 52.8861 45.5215 53.0666 45.8354C54.0082 47.4519 55.3265 48.5897 56.8489 49.3893C57.8219 49.9072 58.8813 50.2847 59.9799 50.5664C61.463 53.2109 64.2879 55 67.5209 55H105.807C106.074 54.8274 106.419 54.796 106.686 55H147.318C152.081 55 155.95 51.1243 155.95 46.3682V44.7439C155.95 42.3128 154.937 40.1157 153.321 38.5462ZM151.414 41.8263C151.414 46.5824 147.538 50.4581 142.782 50.4581H102.142C101.875 50.2541 101.53 50.2855 101.263 50.4581H62.9853C61.7847 50.4581 60.6312 50.207 59.5875 49.7597C58.4418 49.2732 57.4296 48.5434 56.6056 47.6332L56.5978 47.6245C55.201 46.0951 54.3535 44.0541 54.3535 41.8255V40.2012C54.3535 35.4388 58.2221 31.5694 62.9853 31.5694H142.782C145.395 31.5694 147.742 32.7386 149.319 34.5748C149.892 35.2426 150.362 35.9881 150.716 36.8042C151.163 37.8471 151.414 38.9927 151.414 40.2012V41.8263Z" fill="#94BCFF"/>
<rect x="13" y="6" width="10" height="1" rx="0.5" transform="rotate(90 13 6)" fill="#94BCFF"/>
</svg>
